<?xml version="1.0" encoding="UTF-8"?>
<!DOCTYPE svg PUBLIC "-//W3C//DTD SVG 1.1//EN" "http://www.w3.org/Graphics/SVG/1.1/DTD/svg11.dtd">
<svg xmlns="http://www.w3.org/2000/svg" version="1.1" width="500px" height="501px" style="shape-rendering:geometricPrecision; text-rendering:geometricPrecision; image-rendering:optimizeQuality; fill-rule:evenodd; clip-rule:evenodd" xmlns:xlink="http://www.w3.org/1999/xlink">
<g><path style="opacity:1" fill="#f4f5ef" d="M -0.5,-0.5 C 13.1667,-0.5 26.8333,-0.5 40.5,-0.5C 26.6987,8.23814 13.0321,17.2381 -0.5,26.5C -0.5,17.5 -0.5,8.5 -0.5,-0.5 Z"/></g>
<g><path style="opacity:1" fill="#0f0f0f" d="M 40.5,-0.5 C 66.8333,-0.5 93.1667,-0.5 119.5,-0.5C 113.682,1.90983 108.015,4.5765 102.5,7.5C 99.6034,8.98033 96.6034,10.3137 93.5,11.5C 92.2921,12.2341 90.9587,12.5674 89.5,12.5C 89.7373,13.791 89.404,14.791 88.5,15.5C 85.4179,17.0748 82.7512,19.2415 80.5,22C 77.5597,23.1524 74.5597,24.1524 71.5,25C 66.8849,29.8012 61.5515,32.6346 55.5,33.5C 53.9705,32.9332 52.4705,32.2666 51,31.5C 47.3373,33.1354 44.004,35.802 41,39.5C 40.1247,37.4873 38.7913,37.4873 37,39.5C 36.3333,38.8333 35.6667,38.1667 35,37.5C 30.7861,41.3821 26.2861,44.8821 21.5,48C 23.2555,48.1405 24.9222,47.6405 26.5,46.5C 26.9106,47.2624 27.0773,48.2624 27,49.5C 27.6543,48.3044 28.1543,48.3044 28.5,49.5C 27.7579,50.2868 26.9246,50.9535 26,51.5C 21.6331,50.4252 20.4664,52.0919 22.5,56.5C 20.8523,57.8098 19.1856,59.1431 17.5,60.5C 17.8333,61.5 18.5,62.1667 19.5,62.5C 20.451,61.6744 21.451,61.5078 22.5,62C 18.8087,65.03 15.142,68.03 11.5,71C 8.22322,73.7663 5.55655,76.933 3.5,80.5C 2.23338,81.087 1.23338,81.087 0.5,80.5C 2.14905,78.3501 3.98239,76.3501 6,74.5C 6.23593,72.1887 7.06927,70.1887 8.5,68.5C 5.23273,70.4273 2.23273,72.7606 -0.5,75.5C -0.5,59.1667 -0.5,42.8333 -0.5,26.5C 13.0321,17.2381 26.6987,8.23814 40.5,-0.5 Z"/></g>
<g><path style="opacity:1" fill="#f5f6ef" d="M 121.5,-0.5 C 189.833,-0.5 258.167,-0.5 326.5,-0.5C 326.457,7.84771 326.124,16.181 325.5,24.5C 324.295,28.1494 323.295,31.9828 322.5,36C 323.378,37.8001 324.045,39.6334 324.5,41.5C 328.244,40.2582 331.744,40.2582 335,41.5C 335.49,42.7932 335.657,44.1266 335.5,45.5C 338.421,48.0112 341.254,50.6779 344,53.5C 344.333,53.1667 344.667,52.8333 345,52.5C 345.862,54.087 346.529,55.7536 347,57.5C 348.558,56.6548 349.558,57.3215 350,59.5C 350.374,57.5087 351.207,55.842 352.5,54.5C 354.84,55.5718 355.173,57.2385 353.5,59.5C 353.846,60.6956 354.346,60.6956 355,59.5C 355.219,60.938 355.719,62.2713 356.5,63.5C 358.122,60.7411 359.122,57.7411 359.5,54.5C 362.141,51.4248 362.808,47.9248 361.5,44C 363.263,37.643 364.263,31.143 364.5,24.5C 364.777,20.6681 365.11,16.8348 365.5,13C 365.453,10.7047 364.787,8.87135 363.5,7.5C 363.425,4.79384 363.092,2.12717 362.5,-0.5C 407.833,-0.5 453.167,-0.5 498.5,-0.5C 498.667,12.5043 498.5,25.5043 498,38.5C 490.595,52.9789 481.928,66.6455 472,79.5C 449.956,104.711 426.123,128.045 400.5,149.5C 399.373,150.122 398.373,150.955 397.5,152C 397.962,153.722 398.128,155.555 398,157.5C 401.88,156.462 405.046,157.629 407.5,161C 405.142,163.471 405.808,164.971 409.5,165.5C 409.232,167.099 409.566,168.432 410.5,169.5C 410.966,171.201 410.966,172.701 410.5,174C 412.715,174.17 414.715,174.837 416.5,176C 414.668,176.748 413.001,177.748 411.5,179C 413.163,179.265 414.663,178.765 416,177.5C 419.615,179.987 419.782,182.154 416.5,184C 418.76,184.044 420.76,183.211 422.5,181.5C 423.192,182.025 423.692,182.692 424,183.5C 428.167,180.667 432.333,177.833 436.5,175C 438.041,173.629 439.375,172.129 440.5,170.5C 445.132,167.202 449.466,163.536 453.5,159.5C 454.117,159.611 454.617,159.944 455,160.5C 461.005,154.162 467.338,148.162 474,142.5C 474.692,141.563 474.525,140.897 473.5,140.5C 477.96,136.055 481.96,131.388 485.5,126.5C 487.827,123.248 490.161,119.915 492.5,116.5C 494.194,114.139 496.194,112.139 498.5,110.5C 498.667,187.167 498.5,263.834 498,340.5C 493.388,329.332 488.388,318.332 483,307.5C 481.595,306.269 480.429,304.936 479.5,303.5C 484.309,294.88 488.309,285.88 491.5,276.5C 493.932,273.115 494.599,269.448 493.5,265.5C 493.667,264.167 493.833,262.833 494,261.5C 494.333,262.167 494.667,262.833 495,263.5C 495.497,260.854 495.664,258.187 495.5,255.5C 494.641,245.107 491.475,235.441 486,226.5C 476.598,214.563 464.764,206.229 450.5,201.5C 448.393,200.532 446.059,200.198 443.5,200.5C 440.426,200.127 437.426,199.461 434.5,198.5C 426.5,197.167 418.5,197.167 410.5,198.5C 398.521,199.048 387.188,202.048 376.5,207.5C 375.504,207.414 374.671,207.748 374,208.5C 372.216,192.146 367.049,176.979 358.5,163C 367.921,156.968 376.921,150.468 385.5,143.5C 417.887,119.465 442.887,89.4646 460.5,53.5C 466.009,47.498 468.343,40.498 467.5,32.5C 464.066,32.9337 461.399,34.6004 459.5,37.5C 458.927,34.341 458.76,31.0077 459,27.5C 458.667,28.5 458.333,29.5 458,30.5C 457.814,28.0995 457.314,25.7662 456.5,23.5C 455.575,24.6405 454.741,24.6405 454,23.5C 451.67,26.1821 451.17,25.8488 452.5,22.5C 451.013,20.0386 449.346,17.7052 447.5,15.5C 446.548,17.0453 446.215,18.712 446.5,20.5C 444.799,20.0338 443.299,20.0338 442,20.5C 441.536,19.9056 441.369,19.2389 441.5,18.5C 441.557,17.391 441.89,16.391 442.5,15.5C 444.977,13.2332 445.644,10.5665 444.5,7.5C 445.412,6.2618 445.579,4.92847 445,3.5C 444.333,4.83333 443.667,4.83333 443,3.5C 442.536,4.09442 442.369,4.76109 442.5,5.5C 439.997,7.86121 437.997,10.5279 436.5,13.5C 435.123,18.6659 433.123,18.8326 430.5,14C 429.207,13.51 427.873,13.3433 426.5,13.5C 425.901,16.9631 424.901,20.2964 423.5,23.5C 412.338,47.856 396.338,68.6893 375.5,86C 362.289,96.0508 348.956,105.884 335.5,115.5C 332.357,117.242 329.357,119.242 326.5,121.5C 327.015,123.225 327.682,124.892 328.5,126.5C 336.5,128.627 336.5,129.794 328.5,130C 322.219,125.906 315.552,122.572 308.5,120C 314.874,115.25 315.874,109.75 311.5,103.5C 307.374,101.719 303.041,101.052 298.5,101.5C 299.171,91.345 294.504,87.5116 284.5,90C 282.667,91.1667 280.833,92.3333 279,93.5C 278.617,85.4576 274.451,82.291 266.5,84C 258.55,88.2836 252.216,94.2836 247.5,102C 221.903,100.753 197.569,105.586 174.5,116.5C 180.5,110.833 186.5,105.167 192.5,99.5C 196.703,97.0595 200.036,93.7262 202.5,89.5C 202.043,88.7025 201.376,88.3691 200.5,88.5C 199.215,86.5484 197.549,84.8818 195.5,83.5C 193.468,84.819 191.468,84.819 189.5,83.5C 189.815,81.7741 189.981,80.1075 190,78.5C 188.097,80.8206 186.597,80.4873 185.5,77.5C 185.938,77.5654 186.272,77.3988 186.5,77C 184.658,73.9832 181.991,72.4832 178.5,72.5C 178.047,69.537 176.547,67.2037 174,65.5C 172.446,67.9272 171.279,67.9272 170.5,65.5C 170.5,64.8333 170.5,64.1667 170.5,63.5C 170.953,62.5416 171.619,61.7083 172.5,61C 171.5,60.3333 170.5,60.3333 169.5,61C 162.524,69.9705 154.19,77.3039 144.5,83C 126.884,98.2791 107.884,111.612 87.5,123C 79.967,126.673 72.3003,129.839 64.5,132.5C 63.5,132.333 62.5,132.167 61.5,132C 57.9331,128.946 55.9331,125.113 55.5,120.5C 62.6697,107.71 71.6697,96.2098 82.5,86C 86.7159,82.9439 91.0493,80.1106 95.5,77.5C 100.362,75.8557 100.362,74.6891 95.5,74C 98.5,72.3333 101.5,70.6667 104.5,69C 104.77,66.1465 104.27,63.3131 103,60.5C 101.887,59.695 100.721,59.0283 99.5,58.5C 98.307,56.9459 97.1404,55.2792 96,53.5C 95.3292,52.7476 94.4959,52.4142 93.5,52.5C 93.1667,52.5 92.8333,52.5 92.5,52.5C 92.4142,51.5041 92.7476,50.6708 93.5,50C 90.1794,49.0295 88.5127,46.8628 88.5,43.5C 86.712,43.7852 85.0453,43.4519 83.5,42.5C 82.3595,41.5745 82.3595,40.7412 83.5,40C 79.3112,39.1881 75.3112,39.3547 71.5,40.5C 56.38,48.2818 44.0466,59.2818 34.5,73.5C 30.0771,78.1159 26.5771,83.4493 24,89.5C 20.4097,97.5327 17.9097,105.866 16.5,114.5C 15.001,119.245 14.3343,124.245 14.5,129.5C 14.6667,132.833 14.8333,136.167 15,139.5C 15.0995,141.653 15.9328,143.319 17.5,144.5C 18.6408,149.42 20.4742,154.086 23,158.5C 24.3189,160.487 26.1523,161.654 28.5,162C 33.7083,171.356 41.7083,176.523 52.5,177.5C 52.7828,178.289 53.2828,178.956 54,179.5C 59.5997,178.854 65.0997,178.187 70.5,177.5C 73.2062,177.425 75.8728,177.092 78.5,176.5C 81.0673,176.279 83.4006,175.612 85.5,174.5C 101.649,168.907 116.649,161.24 130.5,151.5C 130.938,151.435 131.272,151.601 131.5,152C 123.513,161.495 114.846,170.328 105.5,178.5C 101.476,181.531 97.4762,184.531 93.5,187.5C 80.6769,192.533 67.3435,195.533 53.5,196.5C 53.6882,194.897 53.1882,193.563 52,192.5C 49.719,193.712 47.219,193.545 44.5,192C 37.7808,187.067 31.6142,181.567 26,175.5C 26.3983,177.631 27.3983,179.631 29,181.5C 34.3618,186.032 39.5284,190.699 44.5,195.5C 41.8864,194.193 39.2198,192.86 36.5,191.5C 31.4281,186.925 26.5948,182.259 22,177.5C 21.3162,178.784 21.4829,179.951 22.5,181C 21.6195,181.708 20.9528,182.542 20.5,183.5C 14.3546,188.302 9.35457,193.969 5.5,200.5C 2.91104,200.461 0.911036,201.461 -0.5,203.5C -0.5,164.167 -0.5,124.833 -0.5,85.5C 1.06269,84.0552 2.39602,82.3885 3.5,80.5C 10.8586,74.1375 18.1919,67.8042 25.5,61.5C 27.754,60.8763 29.4206,59.543 30.5,57.5C 32.4341,56.8897 34.1007,55.8897 35.5,54.5C 39.8507,51.8065 44.1841,49.1398 48.5,46.5C 53.4685,43.5225 58.1352,40.1892 62.5,36.5C 68.8417,33.3321 74.8417,29.6654 80.5,25.5C 86.4219,22.8945 92.0885,19.8945 97.5,16.5C 102.257,14.9569 106.924,13.1235 111.5,11C 113.134,10.5065 114.801,10.3398 116.5,10.5C 117.922,10.2504 118.922,9.41704 119.5,8C 118.833,7.66667 118.167,7.33333 117.5,7C 119.384,6.78369 121.051,6.11702 122.5,5C 119.83,4.45735 117.33,4.95735 115,6.5C 113.941,6.36992 113.108,5.86992 112.5,5C 115.121,4.06147 117.788,3.22814 120.5,2.5C 121.127,1.58317 121.461,0.583168 121.5,-0.5 Z"/></g>
<g><path style="opacity:1" fill="#101010" d="M 498.5,-0.5 C 498.833,-0.5 499.167,-0.5 499.5,-0.5C 499.5,166.5 499.5,333.5 499.5,500.5C 332.833,500.5 166.167,500.5 -0.5,500.5C -0.5,500.167 -0.5,499.833 -0.5,499.5C 3.26661,500.074 6.26661,498.907 8.5,496C 10.3453,494.872 12.3453,494.372 14.5,494.5C 14.2196,491.612 15.5529,490.112 18.5,490C 18.1421,486.953 19.6421,484.786 23,483.5C 23,482.167 23,480.833 23,479.5C 24.7804,478.361 26.6137,477.361 28.5,476.5C 27.6437,482.199 28.3104,487.866 30.5,493.5C 29.6872,494.814 28.6872,495.981 27.5,497C 28.4711,498.041 29.4711,498.874 30.5,499.5C 31.8333,499.5 33.1667,499.5 34.5,499.5C 43.1667,499.5 51.8333,499.5 60.5,499.5C 70.8333,499.5 81.1667,499.5 91.5,499.5C 93.5,499.5 95.5,499.5 97.5,499.5C 97.8333,499.5 98.1667,499.5 98.5,499.5C 115.5,499.5 132.5,499.5 149.5,499.5C 149.833,499.5 150.167,499.5 150.5,499.5C 232.5,499.5 314.5,499.5 396.5,499.5C 398.833,499.5 401.167,499.5 403.5,499.5C 403.5,497.833 403.5,496.167 403.5,494.5C 405.898,494.741 407.898,494.074 409.5,492.5C 416.824,491.17 424.157,489.836 431.5,488.5C 439.744,491.585 448.078,491.918 456.5,489.5C 459.244,490.491 461.911,490.157 464.5,488.5C 467.449,489.302 470.449,489.636 473.5,489.5C 481.903,491.857 489.903,495.19 497.5,499.5C 498.5,475.843 498.833,452.176 498.5,428.5C 498.719,427.325 498.386,426.325 497.5,425.5C 495.259,426.032 493.759,427.365 493,429.5C 492.667,429.167 492.333,428.833 492,428.5C 488.199,430.464 485.032,433.131 482.5,436.5C 479.094,438.381 475.761,440.548 472.5,443C 467.719,444.228 463.053,445.728 458.5,447.5C 456.515,447.141 455.849,446.308 456.5,445C 454.899,444.727 453.399,444.227 452,443.5C 445.988,432.154 439.155,421.32 431.5,411C 432.056,410.617 432.389,410.117 432.5,409.5C 448.171,405.057 463.171,399.057 477.5,391.5C 477.5,393.5 477.5,395.5 477.5,397.5C 478.552,397.351 479.552,397.517 480.5,398C 479.396,399.131 479.729,399.965 481.5,400.5C 486.626,398.652 489.626,395.152 490.5,390C 492.061,389.812 492.728,390.645 492.5,392.5C 494.942,392.119 495.609,392.786 494.5,394.5C 495.333,396.167 496.167,397.833 497,399.5C 497.72,397.888 497.554,396.388 496.5,395C 497.945,390.488 498.612,385.822 498.5,381C 498.21,370.175 498.043,359.342 498,348.5C 494.947,340.725 491.113,333.392 486.5,326.5C 486.931,325.707 487.265,324.873 487.5,324C 485.136,318.772 482.636,313.606 480,308.5C 479.506,306.866 479.34,305.199 479.5,303.5C 480.429,304.936 481.595,306.269 483,307.5C 488.388,318.332 493.388,329.332 498,340.5C 498.5,263.834 498.667,187.167 498.5,110.5C 498.631,109.761 498.464,109.094 498,108.5C 496.202,110.837 494.035,111.503 491.5,110.5C 479.092,123.735 466.926,137.069 455,150.5C 453.984,149.366 453.317,149.699 453,151.5C 452.282,150.549 451.449,150.383 450.5,151C 447.966,152.734 446.466,154.9 446,157.5C 447.833,156.333 449.333,154.833 450.5,153C 451.332,152.312 451.998,152.479 452.5,153.5C 450.477,155.853 448.477,158.186 446.5,160.5C 444.62,160.229 443.287,160.896 442.5,162.5C 441.355,161.207 441.689,160.041 443.5,159C 439.789,160.043 437.289,162.543 436,166.5C 430.692,171.138 425.359,175.804 420,180.5C 418.813,178.956 418.48,177.289 419,175.5C 420.925,174.12 422.759,172.62 424.5,171C 422.811,171.134 421.144,171.634 419.5,172.5C 418.373,171.878 417.373,171.045 416.5,170C 417.833,169 417.833,168 416.5,167C 413.127,166.452 410.127,165.118 407.5,163C 408.097,161.111 408.431,159.278 408.5,157.5C 406.5,156.833 404.5,156.167 402.5,155.5C 402.627,153.484 401.961,151.484 400.5,149.5C 426.123,128.045 449.956,104.711 472,79.5C 481.928,66.6455 490.595,52.9789 498,38.5C 498.5,25.5043 498.667,12.5043 498.5,-0.5 Z"/></g>
<g><path style="opacity:1" fill="#7a7b77" d="M 238.5,2.5 C 238.265,3.09674 237.765,3.43007 237,3.5C 233.814,2.87886 230.648,2.21219 227.5,1.5C 227.167,2 226.833,2.5 226.5,3C 227.391,5.27894 228.391,7.44561 229.5,9.5C 227.554,7.29311 225.388,5.29311 223,3.5C 222.383,2.55085 222.549,1.71752 223.5,1C 228.706,0.611791 233.706,1.11179 238.5,2.5 Z"/></g>
<g><path style="opacity:1" fill="#c0c1bc" d="M 119.5,-0.5 C 120.167,-0.5 120.833,-0.5 121.5,-0.5C 121.461,0.583168 121.127,1.58317 120.5,2.5C 117.788,3.22814 115.121,4.06147 112.5,5C 113.108,5.86992 113.941,6.36992 115,6.5C 117.33,4.95735 119.83,4.45735 122.5,5C 121.051,6.11702 119.384,6.78369 117.5,7C 118.167,7.33333 118.833,7.66667 119.5,8C 118.922,9.41704 117.922,10.2504 116.5,10.5C 117.859,8.99066 117.359,8.32399 115,8.5C 112.192,9.38631 109.359,9.55298 106.5,9C 108.384,8.78369 110.051,8.11702 111.5,7C 108.937,6.84584 106.437,7.34584 104,8.5C 103.235,8.43007 102.735,8.09674 102.5,7.5C 108.015,4.5765 113.682,1.90983 119.5,-0.5 Z"/></g>
<g><path style="opacity:1" fill="#a4a4a0" d="M 363.5,7.5 C 364.787,8.87135 365.453,10.7047 365.5,13C 365.11,16.8348 364.777,20.6681 364.5,24.5C 363.946,18.9227 363.612,13.256 363.5,7.5 Z"/></g>
<g><path style="opacity:1" fill="#8a8b86" d="M 444.5,7.5 C 445.644,10.5665 444.977,13.2332 442.5,15.5C 441.919,12.6193 442.586,9.95264 444.5,7.5 Z"/></g>
<g><path style="opacity:1" fill="#6c6d6a" d="M 116.5,10.5 C 114.801,10.3398 113.134,10.5065 111.5,11C 106.924,13.1235 102.257,14.9569 97.5,16.5C 96.1931,15.1984 96.1931,13.865 97.5,12.5C 96.0951,12.24 94.7618,11.9066 93.5,11.5C 96.6034,10.3137 99.6034,8.98033 102.5,7.5C 102.735,8.09674 103.235,8.43007 104,8.5C 106.437,7.34584 108.937,6.84584 111.5,7C 110.051,8.11702 108.384,8.78369 106.5,9C 109.359,9.55298 112.192,9.38631 115,8.5C 117.359,8.32399 117.859,8.99066 116.5,10.5 Z"/></g>
<g><path style="opacity:1" fill="#93948f" d="M 442.5,5.5 C 441.889,8.72091 440.722,11.7209 439,14.5C 438.667,13.5 438.333,12.5 438,11.5C 437.722,12.4158 437.222,13.0825 436.5,13.5C 437.997,10.5279 439.997,7.86121 442.5,5.5 Z"/></g>
<g><path style="opacity:1" fill="#3f403e" d="M 93.5,11.5 C 94.7618,11.9066 96.0951,12.24 97.5,12.5C 96.1931,13.865 96.1931,15.1984 97.5,16.5C 92.0885,19.8945 86.4219,22.8945 80.5,25.5C 80.3893,24.8826 80.056,24.3826 79.5,24C 84.3774,20.9572 89.3774,18.1239 94.5,15.5C 92.4392,15.5608 90.4392,15.5608 88.5,15.5C 89.404,14.791 89.7373,13.791 89.5,12.5C 90.9587,12.5674 92.2921,12.2341 93.5,11.5 Z"/></g>
<g><path style="opacity:1" fill="#3c3d3a" d="M 444.5,7.5 C 442.586,9.95264 441.919,12.6193 442.5,15.5C 441.89,16.391 441.557,17.391 441.5,18.5C 440.167,20.5 438.833,22.5 437.5,24.5C 436.71,23.5987 435.71,22.9321 434.5,22.5C 435.234,21.2921 435.567,19.9587 435.5,18.5C 433.408,18.5614 431.908,19.5614 431,21.5C 429.951,19.8934 428.451,19.2267 426.5,19.5C 426.912,21.9726 425.912,23.3059 423.5,23.5C 424.901,20.2964 425.901,16.9631 426.5,13.5C 427.873,13.3433 429.207,13.51 430.5,14C 433.123,18.8326 435.123,18.6659 436.5,13.5C 437.222,13.0825 437.722,12.4158 438,11.5C 438.333,12.5 438.667,13.5 439,14.5C 440.722,11.7209 441.889,8.72091 442.5,5.5C 442.369,4.76109 442.536,4.09442 443,3.5C 443.667,4.83333 444.333,4.83333 445,3.5C 445.579,4.92847 445.412,6.2618 444.5,7.5 Z"/></g>
<g><path style="opacity:1" fill="#101010" d="M 238.5,2.5 C 253.935,7.88438 268.269,15.3844 281.5,25C 286.869,30.4288 292.702,35.2621 299,39.5C 301.312,42.9795 304.146,45.9795 307.5,48.5C 309.009,50.6564 310.009,52.9897 310.5,55.5C 310.369,56.2389 310.536,56.9056 311,57.5C 313.287,59.0544 315.454,60.7211 317.5,62.5C 319.144,64.4807 320.81,66.4807 322.5,68.5C 321.975,69.1924 321.308,69.6924 320.5,70C 321.582,71.3297 322.249,72.8297 322.5,74.5C 320.581,77.0835 318.914,76.7502 317.5,73.5C 316.265,74.3398 315.265,75.3398 314.5,76.5C 312.833,75.1667 311.167,73.8333 309.5,72.5C 307.54,70.8437 305.54,69.177 303.5,67.5C 297.05,61.3753 290.05,56.0419 282.5,51.5C 281.008,48.6769 278.674,47.0102 275.5,46.5C 273.537,45.1798 271.537,43.8465 269.5,42.5C 266.562,40.023 263.229,38.023 259.5,36.5C 256.5,36.5 253.5,36.5 250.5,36.5C 247.058,35.3546 243.725,34.0213 240.5,32.5C 238.07,25.9835 235.403,19.6502 232.5,13.5C 231.026,12.5637 230.026,11.2303 229.5,9.5C 228.391,7.44561 227.391,5.27894 226.5,3C 226.833,2.5 227.167,2 227.5,1.5C 230.648,2.21219 233.814,2.87886 237,3.5C 237.765,3.43007 238.265,3.09674 238.5,2.5 Z"/></g>
<g><path style="opacity:1" fill="#030303" d="M 434.5,22.5 C 433.489,24.4024 433.322,26.4024 434,28.5C 434.556,26.4049 435.056,26.2382 435.5,28C 434.264,31.2074 432.931,34.3741 431.5,37.5C 432.457,40.5588 434.29,41.5588 437,40.5C 438.427,46.2651 441.76,50.5984 447,53.5C 448,55.8333 449,58.1667 450,60.5C 452.194,57.4456 453.861,54.1122 455,50.5C 457.179,48.6518 459.013,46.4852 460.5,44C 461.332,43.3123 461.998,43.479 462.5,44.5C 455.441,58.2852 447.607,71.6185 439,84.5C 436.982,86.3501 435.149,88.3501 433.5,90.5C 432.676,88.2524 431.676,88.0858 430.5,90C 430.833,90.3333 431.167,90.6667 431.5,91C 430.773,92.3988 430.273,93.8988 430,95.5C 411.843,115.497 392.01,133.497 370.5,149.5C 370.703,151.39 370.037,152.89 368.5,154C 365.328,155.752 362.328,157.752 359.5,160C 358.365,160.749 357.365,160.583 356.5,159.5C 350.781,150.278 343.781,142.111 335.5,135C 335.745,132.351 336.411,129.518 337.5,126.5C 337.005,124.289 335.838,123.955 334,125.5C 332.605,125.22 331.438,124.553 330.5,123.5C 332.607,122.083 334.607,120.583 336.5,119C 335.663,117.989 335.33,116.822 335.5,115.5C 348.956,105.884 362.289,96.0508 375.5,86C 396.338,68.6893 412.338,47.856 423.5,23.5C 425.912,23.3059 426.912,21.9726 426.5,19.5C 428.451,19.2267 429.951,19.8934 431,21.5C 431.908,19.5614 433.408,18.5614 435.5,18.5C 435.567,19.9587 435.234,21.2921 434.5,22.5 Z"/></g>
<g><path style="opacity:1" fill="#595a57" d="M 459.5,37.5 C 459.217,38.2891 458.717,38.9558 458,39.5C 457.803,34.8218 456.803,34.4884 455,38.5C 454.502,35.5184 454.335,32.5184 454.5,29.5C 451.762,28.9648 449.928,29.9648 449,32.5C 448.748,30.0687 449.248,27.7354 450.5,25.5C 448.944,23.2985 447.777,23.2985 447,25.5C 446.667,24.5 446.333,23.5 446,22.5C 442.385,22.4086 440.052,24.4086 439,28.5C 438.59,27.0993 438.09,25.766 437.5,24.5C 438.833,22.5 440.167,20.5 441.5,18.5C 441.369,19.2389 441.536,19.9056 442,20.5C 443.299,20.0338 444.799,20.0338 446.5,20.5C 446.215,18.712 446.548,17.0453 447.5,15.5C 449.346,17.7052 451.013,20.0386 452.5,22.5C 451.17,25.8488 451.67,26.1821 454,23.5C 454.741,24.6405 455.575,24.6405 456.5,23.5C 457.314,25.7662 457.814,28.0995 458,30.5C 458.333,29.5 458.667,28.5 459,27.5C 458.76,31.0077 458.927,34.341 459.5,37.5 Z"/></g>
<g><path style="opacity:1" fill="#90908d" d="M 80.5,25.5 C 74.8417,29.6654 68.8417,33.3321 62.5,36.5C 59.336,34.0385 56.6693,34.7052 54.5,38.5C 52.8008,38.6602 51.1341,38.4935 49.5,38C 51.0905,36.9542 52.5905,35.7875 54,34.5C 55.1068,35.7119 55.6068,35.3786 55.5,33.5C 61.5515,32.6346 66.8849,29.8012 71.5,25C 74.5597,24.1524 77.5597,23.1524 80.5,22C 82.7512,19.2415 85.4179,17.0748 88.5,15.5C 90.4392,15.5608 92.4392,15.5608 94.5,15.5C 89.3774,18.1239 84.3774,20.9572 79.5,24C 80.056,24.3826 80.3893,24.8826 80.5,25.5 Z"/></g>
<g><path style="opacity:1" fill="#b5b6b1" d="M 232.5,13.5 C 235.403,19.6502 238.07,25.9835 240.5,32.5C 239.115,31.4264 237.949,30.0931 237,28.5C 236.333,29.8333 235.667,29.8333 235,28.5C 234.749,23.5233 233.916,18.5233 232.5,13.5 Z"/></g>
<g><path style="opacity:1" fill="#131313" d="M 326.5,-0.5 C 338.5,-0.5 350.5,-0.5 362.5,-0.5C 363.092,2.12717 363.425,4.79384 363.5,7.5C 363.612,13.256 363.946,18.9227 364.5,24.5C 364.263,31.143 363.263,37.643 361.5,44C 362.808,47.9248 362.141,51.4248 359.5,54.5C 358.71,53.3915 358.21,52.0581 358,50.5C 357.085,51.3279 356.419,52.3279 356,53.5C 355.319,51.1053 354.485,48.772 353.5,46.5C 351.803,47.3636 350.637,48.6969 350,50.5C 348.629,46.5969 347.462,46.5969 346.5,50.5C 345.579,50.0697 345.079,48.7364 345,46.5C 344.105,49.7671 342.272,50.4338 339.5,48.5C 339.657,47.1266 339.49,45.7932 339,44.5C 338.617,45.056 338.117,45.3893 337.5,45.5C 336.85,43.5648 336.517,41.5648 336.5,39.5C 335.167,39.5 333.833,39.5 332.5,39.5C 332.085,37.2532 331.418,35.0865 330.5,33C 331.332,30.5217 331.499,28.0217 331,25.5C 330.178,28.1168 329.678,30.7835 329.5,33.5C 328.5,33.5 327.5,33.5 326.5,33.5C 325.338,32.4621 325.005,29.4621 325.5,24.5C 326.124,16.181 326.457,7.84771 326.5,-0.5 Z"/></g>
<g><path style="opacity:1" fill="#2b2b2a" d="M 55.5,33.5 C 55.6068,35.3786 55.1068,35.7119 54,34.5C 52.5905,35.7875 51.0905,36.9542 49.5,38C 51.1341,38.4935 52.8008,38.6602 54.5,38.5C 54.9382,38.4346 55.2716,38.6012 55.5,39C 52.8835,41.4423 50.5502,43.9423 48.5,46.5C 44.1841,49.1398 39.8507,51.8065 35.5,54.5C 33.7673,53.9924 33.434,53.159 34.5,52C 30.313,52.6155 27.313,54.9489 25.5,59C 27.1893,58.8657 28.856,58.3657 30.5,57.5C 29.4206,59.543 27.754,60.8763 25.5,61.5C 25.2231,59.2719 24.2231,57.6053 22.5,56.5C 20.4664,52.0919 21.6331,50.4252 26,51.5C 26.9246,50.9535 27.7579,50.2868 28.5,49.5C 28.1543,48.3044 27.6543,48.3044 27,49.5C 27.0773,48.2624 26.9106,47.2624 26.5,46.5C 24.9222,47.6405 23.2555,48.1405 21.5,48C 26.2861,44.8821 30.7861,41.3821 35,37.5C 35.6667,38.1667 36.3333,38.8333 37,39.5C 38.7913,37.4873 40.1247,37.4873 41,39.5C 44.004,35.802 47.3373,33.1354 51,31.5C 52.4705,32.2666 53.9705,32.9332 55.5,33.5 Z"/></g>
<g><path style="opacity:1" fill="#3a3a38" d="M 325.5,24.5 C 325.005,29.4621 325.338,32.4621 326.5,33.5C 327.5,33.5 328.5,33.5 329.5,33.5C 329.678,30.7835 330.178,28.1168 331,25.5C 331.499,28.0217 331.332,30.5217 330.5,33C 331.418,35.0865 332.085,37.2532 332.5,39.5C 333.833,39.5 335.167,39.5 336.5,39.5C 336.517,41.5648 336.85,43.5648 337.5,45.5C 336.833,45.5 336.167,45.5 335.5,45.5C 335.657,44.1266 335.49,42.7932 335,41.5C 331.744,40.2582 328.244,40.2582 324.5,41.5C 324.045,39.6334 323.378,37.8001 322.5,36C 323.295,31.9828 324.295,28.1494 325.5,24.5 Z"/></g>
<g><path style="opacity:1" fill="#848581" d="M 240.5,32.5 C 243.725,34.0213 247.058,35.3546 250.5,36.5C 253.5,36.5 256.5,36.5 259.5,36.5C 263.229,38.023 266.562,40.023 269.5,42.5C 268.394,43.1494 267.394,43.4827 266.5,43.5C 268.288,44.2826 269.288,45.6159 269.5,47.5C 262.945,45.5558 256.945,42.5558 251.5,38.5C 249.974,38.9943 248.641,39.661 247.5,40.5C 245.717,39.8865 244.384,38.7198 243.5,37C 244.167,36.6667 244.833,36.3333 245.5,36C 244.167,35.6667 242.833,35.3333 241.5,35C 240.748,34.3292 240.414,33.4959 240.5,32.5 Z"/></g>
<g><path style="opacity:1" fill="#50514e" d="M 62.5,36.5 C 58.1352,40.1892 53.4685,43.5225 48.5,46.5C 50.5502,43.9423 52.8835,41.4423 55.5,39C 55.2716,38.6012 54.9382,38.4346 54.5,38.5C 56.6693,34.7052 59.336,34.0385 62.5,36.5 Z"/></g>
<g><path style="opacity:1" fill="#636461" d="M 460.5,53.5 C 462.633,48.0631 464.633,42.5631 466.5,37C 464.693,34.0955 463.193,34.5955 462,38.5C 461.329,37.7476 460.496,37.4142 459.5,37.5C 461.399,34.6004 464.066,32.9337 467.5,32.5C 468.343,40.498 466.009,47.498 460.5,53.5 Z"/></g>
<g><path style="opacity:1" fill="#3d3d3a" d="M 269.5,47.5 C 270.492,47.3284 271.158,47.6618 271.5,48.5C 271.265,49.0967 270.765,49.4301 270,49.5C 267.178,48.4225 264.512,47.0892 262,45.5C 261.235,45.5699 260.735,45.9033 260.5,46.5C 255.788,45.2653 251.455,43.2653 247.5,40.5C 248.641,39.661 249.974,38.9943 251.5,38.5C 256.945,42.5558 262.945,45.5558 269.5,47.5 Z"/></g>
<g><path style="opacity:1" fill="#434342" d="M 71.5,40.5 C 75.3112,39.3547 79.3112,39.1881 83.5,40C 82.3595,40.7412 82.3595,41.5745 83.5,42.5C 85.0453,43.4519 86.712,43.7852 88.5,43.5C 88.5127,46.8628 90.1794,49.0295 93.5,50C 92.7476,50.6708 92.4142,51.5041 92.5,52.5C 90.8008,52.6602 89.1341,52.4935 87.5,52C 88.7054,49.7658 88.0387,48.0992 85.5,47C 81.7102,46.1446 78.0436,44.978 74.5,43.5C 75.2472,43.2635 76.0805,42.9302 77,42.5C 77.5908,41.5165 77.2575,40.8499 76,40.5C 74.437,41.7221 72.937,41.7221 71.5,40.5 Z"/></g>
<g><path style="opacity:1" fill="#1a1a1a" d="M 434.5,22.5 C 435.71,22.9321 436.71,23.5987 437.5,24.5C 438.09,25.766 438.59,27.0993 439,28.5C 440.052,24.4086 442.385,22.4086 446,22.5C 446.333,23.5 446.667,24.5 447,25.5C 447.777,23.2985 448.944,23.2985 450.5,25.5C 449.248,27.7354 448.748,30.0687 449,32.5C 449.928,29.9648 451.762,28.9648 454.5,29.5C 454.335,32.5184 454.502,35.5184 455,38.5C 456.803,34.4884 457.803,34.8218 458,39.5C 458.717,38.9558 459.217,38.2891 459.5,37.5C 460.496,37.4142 461.329,37.7476 462,38.5C 463.193,34.5955 464.693,34.0955 466.5,37C 464.633,42.5631 462.633,48.0631 460.5,53.5C 442.887,89.4646 417.887,119.465 385.5,143.5C 381.306,144.174 377.64,146.007 374.5,149C 373.207,149.49 371.873,149.657 370.5,149.5C 392.01,133.497 411.843,115.497 430,95.5C 430.273,93.8988 430.773,92.3988 431.5,91C 431.167,90.6667 430.833,90.3333 430.5,90C 431.676,88.0858 432.676,88.2524 433.5,90.5C 435.149,88.3501 436.982,86.3501 439,84.5C 447.607,71.6185 455.441,58.2852 462.5,44.5C 461.998,43.479 461.332,43.3123 460.5,44C 459.013,46.4852 457.179,48.6518 455,50.5C 453.861,54.1122 452.194,57.4456 450,60.5C 449,58.1667 448,55.8333 447,53.5C 441.76,50.5984 438.427,46.2651 437,40.5C 434.29,41.5588 432.457,40.5588 431.5,37.5C 432.931,34.3741 434.264,31.2074 435.5,28C 435.056,26.2382 434.556,26.4049 434,28.5C 433.322,26.4024 433.489,24.4024 434.5,22.5 Z"/></g>
<g><path style="opacity:1" fill="#babbb7" d="M 269.5,42.5 C 271.537,43.8465 273.537,45.1798 275.5,46.5C 275.389,47.1174 275.056,47.6174 274.5,48C 276.5,49.3333 278.5,50.6667 280.5,52C 277.111,51.9771 274.111,50.8105 271.5,48.5C 271.158,47.6618 270.492,47.3284 269.5,47.5C 269.288,45.6159 268.288,44.2826 266.5,43.5C 267.394,43.4827 268.394,43.1494 269.5,42.5 Z"/></g>
<g><path style="opacity:1" fill="#777774" d="M 271.5,48.5 C 274.111,50.8105 277.111,51.9771 280.5,52C 278.5,50.6667 276.5,49.3333 274.5,48C 275.056,47.6174 275.389,47.1174 275.5,46.5C 278.674,47.0102 281.008,48.6769 282.5,51.5C 281.596,52.209 281.263,53.209 281.5,54.5C 279.602,53.9107 277.602,53.744 275.5,54C 273.656,52.8179 271.823,51.6512 270,50.5C 269.235,50.5699 268.735,50.9033 268.5,51.5C 265.797,49.8193 263.131,48.1526 260.5,46.5C 260.735,45.9033 261.235,45.5699 262,45.5C 264.512,47.0892 267.178,48.4225 270,49.5C 270.765,49.4301 271.265,49.0967 271.5,48.5 Z"/></g>
<g><path style="opacity:1" fill="#151515" d="M 71.5,40.5 C 72.937,41.7221 74.437,41.7221 76,40.5C 77.2575,40.8499 77.5908,41.5165 77,42.5C 76.0805,42.9302 75.2472,43.2635 74.5,43.5C 78.0436,44.978 81.7102,46.1446 85.5,47C 88.0387,48.0992 88.7054,49.7658 87.5,52C 89.1341,52.4935 90.8008,52.6602 92.5,52.5C 92.8333,52.5 93.1667,52.5 93.5,52.5C 93.4486,54.5695 94.1153,56.4029 95.5,58C 94.5128,60.3206 92.8461,61.9872 90.5,63C 93.1057,62.5804 95.7724,62.9138 98.5,64C 96.1224,64.9745 96.4557,65.6411 99.5,66C 98.7476,66.6708 98.4142,67.5041 98.5,68.5C 95.279,68.8961 92.6123,70.2295 90.5,72.5C 82.9355,76.8643 76.6022,82.0309 71.5,88C 71.9574,88.414 72.2907,88.914 72.5,89.5C 71.7261,90.7112 70.8928,90.7112 70,89.5C 69,90.5 68,91.5 67,92.5C 62.6548,98.5239 58.8214,104.857 55.5,111.5C 55.1667,111.5 54.8333,111.5 54.5,111.5C 54.2161,108.223 54.5495,105.057 55.5,102C 54.6919,101.692 54.0253,101.192 53.5,100.5C 55.3274,98.5128 56.3274,96.1795 56.5,93.5C 57.675,93.719 58.675,93.3857 59.5,92.5C 64.8436,82.9865 71.5103,74.4865 79.5,67C 77.9265,63.9267 76.0932,63.4267 74,65.5C 73.586,65.0426 73.086,64.7093 72.5,64.5C 71.7189,65.7287 71.2189,67.062 71,68.5C 70.3333,65.8333 69.6667,65.8333 69,68.5C 68.2195,67.0563 68.3861,65.723 69.5,64.5C 74.0852,60.416 79.0852,56.916 84.5,54C 85.1667,53 85.8333,52 86.5,51C 84.0871,50.5162 81.7538,50.8495 79.5,52C 75.6963,54.3045 72.0296,56.8045 68.5,59.5C 68.1667,59.3333 67.8333,59.1667 67.5,59C 71.4455,55.135 75.7788,51.8017 80.5,49C 80,48.5 79.5,48 79,47.5C 77.0126,48.218 75.1792,49.218 73.5,50.5C 72.3044,50.1543 72.3044,49.6543 73.5,49C 71.5211,48.3164 69.8544,48.8164 68.5,50.5C 66.139,49.979 63.8057,49.6457 61.5,49.5C 58.7978,52.7008 55.6312,55.3675 52,57.5C 48.8132,63.938 49.3132,64.1046 53.5,58C 54.635,57.2506 55.635,57.4173 56.5,58.5C 55.3906,60.3853 54.5573,62.3853 54,64.5C 52.4345,63.9394 51.1011,64.6061 50,66.5C 48.887,67.7604 48.7203,68.927 49.5,70C 46.6586,72.4346 44.1586,75.2679 42,78.5C 41,77.1667 40,75.8333 39,74.5C 38.6667,74.8333 38.3333,75.1667 38,75.5C 37.2904,74.0267 36.1238,73.3601 34.5,73.5C 44.0466,59.2818 56.38,48.2818 71.5,40.5 Z"/></g>
<g><path style="opacity:1" fill="#787875" d="M 35.5,54.5 C 34.1007,55.8897 32.4341,56.8897 30.5,57.5C 28.856,58.3657 27.1893,58.8657 25.5,59C 27.313,54.9489 30.313,52.6155 34.5,52C 33.434,53.159 33.7673,53.9924 35.5,54.5 Z"/></g>
<g><path style="opacity:1" fill="#b5b6b1" d="M 346.5,50.5 C 347.302,51.9516 347.802,53.6183 348,55.5C 349.066,52.782 350.733,50.4486 353,48.5C 352.865,50.4247 352.698,52.4247 352.5,54.5C 351.207,55.842 350.374,57.5087 350,59.5C 349.558,57.3215 348.558,56.6548 347,57.5C 346.529,55.7536 345.862,54.087 345,52.5C 344.667,52.8333 344.333,53.1667 344,53.5C 341.254,50.6779 338.421,48.0112 335.5,45.5C 336.167,45.5 336.833,45.5 337.5,45.5C 338.117,45.3893 338.617,45.056 339,44.5C 339.49,45.7932 339.657,47.1266 339.5,48.5C 342.272,50.4338 344.105,49.7671 345,46.5C 345.079,48.7364 345.579,50.0697 346.5,50.5 Z"/></g>
<g><path style="opacity:1" fill="#8f8f8b" d="M 310.5,55.5 C 314.216,55.8747 316.549,58.2081 317.5,62.5C 315.454,60.7211 313.287,59.0544 311,57.5C 310.536,56.9056 310.369,56.2389 310.5,55.5 Z"/></g>
<g><path style="opacity:1" fill="#5c5c59" d="M 359.5,54.5 C 359.122,57.7411 358.122,60.7411 356.5,63.5C 355.719,62.2713 355.219,60.938 355,59.5C 354.346,60.6956 353.846,60.6956 353.5,59.5C 355.173,57.2385 354.84,55.5718 352.5,54.5C 352.698,52.4247 352.865,50.4247 353,48.5C 350.733,50.4486 349.066,52.782 348,55.5C 347.802,53.6183 347.302,51.9516 346.5,50.5C 347.462,46.5969 348.629,46.5969 350,50.5C 350.637,48.6969 351.803,47.3636 353.5,46.5C 354.485,48.772 355.319,51.1053 356,53.5C 356.419,52.3279 357.085,51.3279 358,50.5C 358.21,52.0581 358.71,53.3915 359.5,54.5 Z"/></g>
<g><path style="opacity:1" fill="#3d3d3a" d="M 93.5,52.5 C 94.4959,52.4142 95.3292,52.7476 96,53.5C 97.1404,55.2792 98.307,56.9459 99.5,58.5C 99.5,59.5 99.5,60.5 99.5,61.5C 103.456,62.0527 103.456,62.8861 99.5,64C 103.825,66.5071 103.491,68.0071 98.5,68.5C 98.4142,67.5041 98.7476,66.6708 99.5,66C 96.4557,65.6411 96.1224,64.9745 98.5,64C 95.7724,62.9138 93.1057,62.5804 90.5,63C 92.8461,61.9872 94.5128,60.3206 95.5,58C 94.1153,56.4029 93.4486,54.5695 93.5,52.5 Z"/></g>
<g><path style="opacity:1" fill="#31312e" d="M 268.5,51.5 C 268.735,50.9033 269.235,50.5699 270,50.5C 271.823,51.6512 273.656,52.8179 275.5,54C 277.602,53.744 279.602,53.9107 281.5,54.5C 283.173,54.2356 284.84,54.7356 286.5,56C 291.681,60.6812 297.015,65.1812 302.5,69.5C 301.749,70.5735 300.749,70.7401 299.5,70C 294.86,65.519 289.526,62.3524 283.5,60.5C 278.666,57.2484 273.666,54.2484 268.5,51.5 Z"/></g>
<g><path style="opacity:1" fill="#666664" d="M 22.5,56.5 C 24.2231,57.6053 25.2231,59.2719 25.5,61.5C 18.1919,67.8042 10.8586,74.1375 3.5,80.5C 5.55655,76.933 8.22322,73.7663 11.5,71C 15.142,68.03 18.8087,65.03 22.5,62C 21.451,61.5078 20.451,61.6744 19.5,62.5C 18.5,62.1667 17.8333,61.5 17.5,60.5C 19.1856,59.1431 20.8523,57.8098 22.5,56.5 Z"/></g>
<g><path style="opacity:1" fill="#c7c7c4" d="M 282.5,51.5 C 290.05,56.0419 297.05,61.3753 303.5,67.5C 303.672,68.4916 303.338,69.1583 302.5,69.5C 297.015,65.1812 291.681,60.6812 286.5,56C 284.84,54.7356 283.173,54.2356 281.5,54.5C 281.263,53.209 281.596,52.209 282.5,51.5 Z"/></g>
<g><path style="opacity:1" fill="#050505" d="M 54.5,111.5 C 54.369,112.239 54.5357,112.906 55,113.5C 55.6543,112.304 56.1543,112.304 56.5,113.5C 54.9909,115.902 54.6576,118.235 55.5,120.5C 55.9331,125.113 57.9331,128.946 61.5,132C 62.5,132.167 63.5,132.333 64.5,132.5C 72.3003,129.839 79.967,126.673 87.5,123C 107.884,111.612 126.884,98.2791 144.5,83C 154.19,77.3039 162.524,69.9705 169.5,61C 170.5,60.3333 171.5,60.3333 172.5,61C 171.619,61.7083 170.953,62.5416 170.5,63.5C 164.369,69.1305 158.369,74.9638 152.5,81C 153.167,81.6667 153.833,81.6667 154.5,81C 157.333,78.1667 160.167,75.3333 163,72.5C 163.278,73.4158 163.778,74.0825 164.5,74.5C 166.298,75.4629 167.632,74.7962 168.5,72.5C 169.906,73.6682 171.072,73.3348 172,71.5C 172.098,74.5224 172.932,77.1891 174.5,79.5C 175.836,81.5323 177.503,83.3657 179.5,85C 176.833,87.4091 176.999,88.5758 180,88.5C 180.833,87.5 181.667,86.5 182.5,85.5C 183.086,85.7093 183.586,86.0426 184,86.5C 185.093,84.6508 186.426,82.9842 188,81.5C 187.577,83.3867 187.744,85.3867 188.5,87.5C 190.124,87.3601 191.29,88.0267 192,89.5C 193.045,88.6266 193.878,87.6266 194.5,86.5C 195.461,88.2646 195.795,90.2646 195.5,92.5C 193.182,94.1852 192.182,96.5185 192.5,99.5C 186.5,105.167 180.5,110.833 174.5,116.5C 158.075,125.922 143.408,137.588 130.5,151.5C 116.649,161.24 101.649,168.907 85.5,174.5C 82.7718,174.171 80.4385,174.837 78.5,176.5C 75.8728,177.092 73.2062,177.425 70.5,177.5C 64.5,177.5 58.5,177.5 52.5,177.5C 41.7083,176.523 33.7083,171.356 28.5,162C 26.1523,161.654 24.3189,160.487 23,158.5C 20.4742,154.086 18.6408,149.42 17.5,144.5C 17.6295,134.479 17.2961,124.479 16.5,114.5C 17.9097,105.866 20.4097,97.5327 24,89.5C 26.5771,83.4493 30.0771,78.1159 34.5,73.5C 36.1238,73.3601 37.2904,74.0267 38,75.5C 38.3333,75.1667 38.6667,74.8333 39,74.5C 40,75.8333 41,77.1667 42,78.5C 44.1586,75.2679 46.6586,72.4346 49.5,70C 48.7203,68.927 48.887,67.7604 50,66.5C 51.1011,64.6061 52.4345,63.9394 54,64.5C 54.5573,62.3853 55.3906,60.3853 56.5,58.5C 55.635,57.4173 54.635,57.2506 53.5,58C 49.3132,64.1046 48.8132,63.938 52,57.5C 55.6312,55.3675 58.7978,52.7008 61.5,49.5C 63.8057,49.6457 66.139,49.979 68.5,50.5C 69.8544,48.8164 71.5211,48.3164 73.5,49C 72.3044,49.6543 72.3044,50.1543 73.5,50.5C 75.1792,49.218 77.0126,48.218 79,47.5C 79.5,48 80,48.5 80.5,49C 75.7788,51.8017 71.4455,55.135 67.5,59C 67.8333,59.1667 68.1667,59.3333 68.5,59.5C 72.0296,56.8045 75.6963,54.3045 79.5,52C 81.7538,50.8495 84.0871,50.5162 86.5,51C 85.8333,52 85.1667,53 84.5,54C 79.0852,56.916 74.0852,60.416 69.5,64.5C 68.3861,65.723 68.2195,67.0563 69,68.5C 69.6667,65.8333 70.3333,65.8333 71,68.5C 71.2189,67.062 71.7189,65.7287 72.5,64.5C 73.086,64.7093 73.586,65.0426 74,65.5C 76.0932,63.4267 77.9265,63.9267 79.5,67C 71.5103,74.4865 64.8436,82.9865 59.5,92.5C 58.675,93.3857 57.675,93.719 56.5,93.5C 56.3274,96.1795 55.3274,98.5128 53.5,100.5C 54.0253,101.192 54.6919,101.692 55.5,102C 54.5495,105.057 54.2161,108.223 54.5,111.5 Z"/></g>
<g><path style="opacity:1" fill="#8f8f8e" d="M 8.5,68.5 C 9.1415,65.8474 10.8082,64.6807 13.5,65C 12.1537,66.6692 10.487,67.8358 8.5,68.5 Z"/></g>
<g><path style="opacity:1" fill="#bbbcb7" d="M 99.5,58.5 C 100.721,59.0283 101.887,59.695 103,60.5C 104.27,63.3131 104.77,66.1465 104.5,69C 101.5,70.6667 98.5,72.3333 95.5,74C 100.362,74.6891 100.362,75.8557 95.5,77.5C 95.9175,76.7784 96.5842,76.2784 97.5,76C 93.3573,76.4797 89.524,77.9797 86,80.5C 84.3164,80.3166 84.1498,79.6499 85.5,78.5C 88.2606,77.4065 89.9272,75.4065 90.5,72.5C 92.6123,70.2295 95.279,68.8961 98.5,68.5C 103.491,68.0071 103.825,66.5071 99.5,64C 103.456,62.8861 103.456,62.0527 99.5,61.5C 99.5,60.5 99.5,59.5 99.5,58.5 Z"/></g>
<g><path style="opacity:1" fill="#cacbc6" d="M 170.5,65.5 C 171.279,67.9272 172.446,67.9272 174,65.5C 176.547,67.2037 178.047,69.537 178.5,72.5C 181.991,72.4832 184.658,73.9832 186.5,77C 186.272,77.3988 185.938,77.5654 185.5,77.5C 183.871,78.6253 182.371,79.9586 181,81.5C 180.676,79.4311 179.842,79.0977 178.5,80.5C 176.839,78.3436 175.506,76.0103 174.5,73.5C 175.911,71.9825 175.744,70.6492 174,69.5C 173.601,69.7284 173.435,70.0618 173.5,70.5C 172.265,70.2786 171.265,69.6119 170.5,68.5C 169.148,69.5244 167.815,70.5244 166.5,71.5C 166.287,68.9466 167.62,66.9466 170.5,65.5 Z"/></g>
<g><path style="opacity:1" fill="#7a7b79" d="M 170.5,63.5 C 170.5,64.1667 170.5,64.8333 170.5,65.5C 167.62,66.9466 166.287,68.9466 166.5,71.5C 165.833,72.5 165.167,73.5 164.5,74.5C 163.778,74.0825 163.278,73.4158 163,72.5C 160.167,75.3333 157.333,78.1667 154.5,81C 153.833,81.6667 153.167,81.6667 152.5,81C 158.369,74.9638 164.369,69.1305 170.5,63.5 Z"/></g>
<g><path style="opacity:1" fill="#353534" d="M 173.5,70.5 C 173.508,73.5448 173.841,76.5448 174.5,79.5C 172.932,77.1891 172.098,74.5224 172,71.5C 171.072,73.3348 169.906,73.6682 168.5,72.5C 167.632,74.7962 166.298,75.4629 164.5,74.5C 165.167,73.5 165.833,72.5 166.5,71.5C 167.815,70.5244 169.148,69.5244 170.5,68.5C 171.265,69.6119 172.265,70.2786 173.5,70.5 Z"/></g>
<g><path style="opacity:1" fill="#575756" d="M 8.5,68.5 C 7.06927,70.1887 6.23593,72.1887 6,74.5C 3.98239,76.3501 2.14905,78.3501 0.5,80.5C 1.23338,81.087 2.23338,81.087 3.5,80.5C 2.39602,82.3885 1.06269,84.0552 -0.5,85.5C -0.5,82.1667 -0.5,78.8333 -0.5,75.5C 2.23273,72.7606 5.23273,70.4273 8.5,68.5 Z"/></g>
<g><path style="opacity:1" fill="#60615d" d="M 283.5,60.5 C 289.526,62.3524 294.86,65.519 299.5,70C 300.749,70.7401 301.749,70.5735 302.5,69.5C 303.338,69.1583 303.672,68.4916 303.5,67.5C 305.54,69.177 307.54,70.8437 309.5,72.5C 308.769,72.9418 307.769,73.1085 306.5,73C 311.688,76.688 316.022,81.188 319.5,86.5C 318.11,88.2029 316.61,88.8696 315,88.5C 313.712,85.152 311.879,82.152 309.5,79.5C 306.644,77.478 304.311,74.978 302.5,72C 301.5,72.3333 300.5,72.6667 299.5,73C 294.279,68.5721 288.945,64.4054 283.5,60.5 Z"/></g>
<g><path style="opacity:1" fill="#8d8d89" d="M 322.5,74.5 C 322.64,76.1238 321.973,77.2904 320.5,78C 322.007,78.8373 322.507,80.0039 322,81.5C 320.647,80.3147 319.48,78.9814 318.5,77.5C 318.331,78.3966 317.998,79.3966 317.5,80.5C 316.476,79.1482 315.476,77.8149 314.5,76.5C 315.265,75.3398 316.265,74.3398 317.5,73.5C 318.914,76.7502 320.581,77.0835 322.5,74.5 Z"/></g>
<g><path style="opacity:1" fill="#7d7d7a" d="M 185.5,77.5 C 186.597,80.4873 188.097,80.8206 190,78.5C 189.981,80.1075 189.815,81.7741 189.5,83.5C 189.281,84.675 189.614,85.675 190.5,86.5C 191.865,85.1931 193.198,85.1931 194.5,86.5C 193.878,87.6266 193.045,88.6266 192,89.5C 191.29,88.0267 190.124,87.3601 188.5,87.5C 187.744,85.3867 187.577,83.3867 188,81.5C 186.426,82.9842 185.093,84.6508 184,86.5C 183.586,86.0426 183.086,85.7093 182.5,85.5C 181.667,86.5 180.833,87.5 180,88.5C 176.999,88.5758 176.833,87.4091 179.5,85C 177.503,83.3657 175.836,81.5323 174.5,79.5C 173.841,76.5448 173.508,73.5448 173.5,70.5C 173.435,70.0618 173.601,69.7284 174,69.5C 175.744,70.6492 175.911,71.9825 174.5,73.5C 175.506,76.0103 176.839,78.3436 178.5,80.5C 179.842,79.0977 180.676,79.4311 181,81.5C 182.371,79.9586 183.871,78.6253 185.5,77.5 Z"/></g>
<g><path style="opacity:1" fill="#a3a4a0" d="M 189.5,83.5 C 191.468,84.819 193.468,84.819 195.5,83.5C 197.549,84.8818 199.215,86.5484 200.5,88.5C 199.145,90.9289 197.478,92.2623 195.5,92.5C 195.795,90.2646 195.461,88.2646 194.5,86.5C 193.198,85.1931 191.865,85.1931 190.5,86.5C 189.614,85.675 189.281,84.675 189.5,83.5 Z"/></g>
<g><path style="opacity:1" fill="#1d231d" d="M 335.5,115.5 C 335.33,116.822 335.663,117.989 336.5,119C 334.607,120.583 332.607,122.083 330.5,123.5C 331.438,124.553 332.605,125.22 334,125.5C 335.838,123.955 337.005,124.289 337.5,126.5C 336.411,129.518 335.745,132.351 335.5,135C 343.781,142.111 350.781,150.278 356.5,159.5C 357.365,160.583 358.365,160.749 359.5,160C 362.328,157.752 365.328,155.752 368.5,154C 370.037,152.89 370.703,151.39 370.5,149.5C 371.873,149.657 373.207,149.49 374.5,149C 377.64,146.007 381.306,144.174 385.5,143.5C 376.921,150.468 367.921,156.968 358.5,163C 367.049,176.979 372.216,192.146 374,208.5C 374.671,207.748 375.504,207.414 376.5,207.5C 376.167,208.167 375.833,208.833 375.5,209.5C 374.174,213.614 373.507,218.114 373.5,223C 373.532,227.919 374.199,232.586 375.5,237C 374.869,238.906 374.536,240.906 374.5,243C 374.547,245.295 375.213,247.129 376.5,248.5C 374.884,250.416 375.218,251.916 377.5,253C 376.549,253.718 376.383,254.551 377,255.5C 378.011,254.663 379.178,254.33 380.5,254.5C 379.544,255.659 378.544,256.826 377.5,258C 378.406,262.438 379.74,266.605 381.5,270.5C 382.499,277.829 383.499,285.163 384.5,292.5C 384.471,304.828 381.471,316.328 375.5,327C 377.013,328.879 377.679,331.046 377.5,333.5C 376.206,332.71 375.039,331.71 374,330.5C 370.535,334.967 366.702,339.133 362.5,343C 386.979,361.48 408.812,382.646 428,406.5C 429.129,408.141 430.629,409.141 432.5,409.5C 432.389,410.117 432.056,410.617 431.5,411C 439.155,421.32 445.988,432.154 452,443.5C 453.399,444.227 454.899,444.727 456.5,445C 455.849,446.308 456.515,447.141 458.5,447.5C 457.602,448.158 456.602,448.824 455.5,449.5C 459.409,457.208 461.742,465.374 462.5,474C 462.274,478.513 460.94,482.679 458.5,486.5C 463.724,487.081 468.724,488.081 473.5,489.5C 470.449,489.636 467.449,489.302 464.5,488.5C 461.911,490.157 459.244,490.491 456.5,489.5C 448.078,491.918 439.744,491.585 431.5,488.5C 424.157,489.836 416.824,491.17 409.5,492.5C 407.898,494.074 405.898,494.741 403.5,494.5C 403.5,496.167 403.5,497.833 403.5,499.5C 401.167,499.5 398.833,499.5 396.5,499.5C 393.166,444.168 377.166,392.835 348.5,345.5C 372.319,328.49 381.152,305.49 375,276.5C 367.211,253.154 364.211,229.154 366,204.5C 364.286,191.852 360.12,180.185 353.5,169.5C 352.502,165.495 350.502,162.161 347.5,159.5C 340.115,148.448 330.782,139.448 319.5,132.5C 314.185,128.575 308.185,125.908 301.5,124.5C 299.36,124.556 297.694,125.223 296.5,126.5C 294.034,129.031 291.034,129.864 287.5,129C 286.446,127.612 286.28,126.112 287,124.5C 293.861,120.978 300.194,116.645 306,111.5C 306.483,110.552 306.649,109.552 306.5,108.5C 299.416,108.371 293.083,110.537 287.5,115C 282.917,115.934 281.417,114.1 283,109.5C 287.364,106.088 290.198,101.755 291.5,96.5C 289.801,96.3398 288.134,96.5065 286.5,97C 282.805,99.51 279.138,102.01 275.5,104.5C 273.052,106.284 270.385,107.618 267.5,108.5C 269.173,102.626 270.506,96.6257 271.5,90.5C 270.209,90.2627 269.209,90.596 268.5,91.5C 267.609,92.1098 266.609,92.4431 265.5,92.5C 261.167,94.8333 257.833,98.1667 255.5,102.5C 255.993,104.806 256.326,107.139 256.5,109.5C 253.272,110.414 249.939,110.747 246.5,110.5C 242.347,109.834 238.013,109.501 233.5,109.5C 226.928,109.32 220.595,109.986 214.5,111.5C 204.194,112.715 194.527,115.715 185.5,120.5C 183.597,120.796 181.93,121.463 180.5,122.5C 169.607,127.442 159.94,134.109 151.5,142.5C 142.856,148.978 135.356,156.645 129,165.5C 121.43,176.648 114.93,188.314 109.5,200.5C 107.905,202.111 106.739,204.111 106,206.5C 103.853,215.382 102.353,224.382 101.5,233.5C 100.883,233.611 100.383,233.944 100,234.5C 99.2687,248.563 99.9353,262.563 102,276.5C 102.983,279.311 104.149,281.977 105.5,284.5C 110.612,299.055 117.612,312.722 126.5,325.5C 127.373,327.886 128.873,329.886 131,331.5C 131.495,333.473 131.662,335.473 131.5,337.5C 98.2267,369.932 70.06,406.265 47,446.5C 42.5531,455.669 38.7198,465.002 35.5,474.5C 34.7784,474.918 34.2784,475.584 34,476.5C 33.1725,480.871 33.3391,485.205 34.5,489.5C 35.9308,491.938 37.9308,493.604 40.5,494.5C 49.2565,495.064 57.5899,493.23 65.5,489C 79.5176,480.804 92.5176,471.304 104.5,460.5C 120.238,449.263 133.905,435.763 145.5,420C 146.793,419.51 148.127,419.343 149.5,419.5C 150.613,420.946 150.78,422.613 150,424.5C 146.353,427.825 143.186,431.492 140.5,435.5C 130.167,446.5 119.5,457.167 108.5,467.5C 102.597,469.755 99.9304,474.088 100.5,480.5C 99.207,481.842 98.3736,483.509 98,485.5C 97.5008,490.155 97.3342,494.821 97.5,499.5C 95.5,499.5 93.5,499.5 91.5,499.5C 91.5158,493.121 91.6825,486.788 92,480.5C 82.151,488.004 71.651,494.337 60.5,499.5C 51.8333,499.5 43.1667,499.5 34.5,499.5C 33.1667,496.833 31.8333,496.833 30.5,499.5C 29.4711,498.874 28.4711,498.041 27.5,497C 28.6872,495.981 29.6872,494.814 30.5,493.5C 28.3104,487.866 27.6437,482.199 28.5,476.5C 30.8649,465.573 34.5316,455.073 39.5,445C 39.1639,443.97 38.4972,443.47 37.5,443.5C 39.0913,442.781 40.5913,441.781 42,440.5C 57.1667,414.004 74.6667,389.17 94.5,366C 93.944,365.617 93.6107,365.117 93.5,364.5C 96.2626,364.256 98.4293,362.923 100,360.5C 106.42,353.29 112.587,345.957 118.5,338.5C 120.886,337.627 122.886,336.127 124.5,334C 108.007,314.166 98.1735,291.332 95,265.5C 94.8302,255.325 94.3302,245.325 93.5,235.5C 95.9654,226.358 98.1321,217.025 100,207.5C 102.192,199.28 105.359,191.447 109.5,184C 108.644,182.405 107.311,181.572 105.5,181.5C 107.139,180.527 108.473,179.194 109.5,177.5C 107.983,177.511 106.816,178.177 106,179.5C 105.601,179.272 105.435,178.938 105.5,178.5C 114.846,170.328 123.513,161.495 131.5,152C 131.272,151.601 130.938,151.435 130.5,151.5C 143.408,137.588 158.075,125.922 174.5,116.5C 197.569,105.586 221.903,100.753 247.5,102C 252.216,94.2836 258.55,88.2836 266.5,84C 274.451,82.291 278.617,85.4576 279,93.5C 280.833,92.3333 282.667,91.1667 284.5,90C 294.504,87.5116 299.171,91.345 298.5,101.5C 303.041,101.052 307.374,101.719 311.5,103.5C 315.874,109.75 314.874,115.25 308.5,120C 315.552,122.572 322.219,125.906 328.5,130C 336.5,129.794 336.5,128.627 328.5,126.5C 327.682,124.892 327.015,123.225 326.5,121.5C 329.357,119.242 332.357,117.242 335.5,115.5 Z"/></g>
<g><path style="opacity:1" fill="#797977" d="M 90.5,72.5 C 89.9272,75.4065 88.2606,77.4065 85.5,78.5C 82.4405,79.1573 80.9405,81.1573 81,84.5C 71.307,92.3601 62.807,101.36 55.5,111.5C 58.8214,104.857 62.6548,98.5239 67,92.5C 68,91.5 69,90.5 70,89.5C 70.8928,90.7112 71.7261,90.7112 72.5,89.5C 72.2907,88.914 71.9574,88.414 71.5,88C 76.6022,82.0309 82.9355,76.8643 90.5,72.5 Z"/></g>
<g><path style="opacity:1" fill="#04e164" d="M 268.5,91.5 C 269.649,91.7911 270.316,92.6244 270.5,94C 269.389,97.3238 267.889,100.49 266,103.5C 264.5,108.667 266.333,110.5 271.5,109C 273.041,107.629 274.375,106.129 275.5,104.5C 279.138,102.01 282.805,99.51 286.5,97C 288.134,96.5065 289.801,96.3398 291.5,96.5C 290.198,101.755 287.364,106.088 283,109.5C 281.417,114.1 282.917,115.934 287.5,115C 293.083,110.537 299.416,108.371 306.5,108.5C 306.649,109.552 306.483,110.552 306,111.5C 300.194,116.645 293.861,120.978 287,124.5C 286.28,126.112 286.446,127.612 287.5,129C 291.034,129.864 294.034,129.031 296.5,126.5C 300.915,126.305 305.249,126.805 309.5,128C 312.513,130.172 315.846,131.672 319.5,132.5C 330.782,139.448 340.115,148.448 347.5,159.5C 347.5,160.833 347.5,162.167 347.5,163.5C 344.941,163.198 342.607,163.532 340.5,164.5C 333.501,169.46 328.668,176.126 326,184.5C 324.833,185.667 323.667,186.833 322.5,188C 317.618,189.555 312.618,189.888 307.5,189C 296.098,183.278 286.098,175.611 277.5,166C 254.832,152.039 232.166,152.039 209.5,166C 201.048,170.953 194.048,177.453 188.5,185.5C 186.616,185.712 185.283,186.712 184.5,188.5C 172.174,208.75 168.174,230.417 172.5,253.5C 172.5,254.167 172.833,254.5 173.5,254.5C 174.256,263.192 176.423,271.525 180,279.5C 185.205,290.024 191.205,300.024 198,309.5C 202.581,316.987 205.748,324.987 207.5,333.5C 207.666,340.508 207.5,347.508 207,354.5C 204.532,358.919 202.699,363.585 201.5,368.5C 194.25,380.266 186.75,391.932 179,403.5C 173.905,413.017 169.405,422.684 165.5,432.5C 161.438,441.056 158.438,450.056 156.5,459.5C 156.5,460.5 156.5,461.5 156.5,462.5C 155.034,463.347 154.2,464.68 154,466.5C 151.044,477.318 149.544,488.318 149.5,499.5C 132.5,499.5 115.5,499.5 98.5,499.5C 98.2319,493.044 98.8986,486.711 100.5,480.5C 99.9304,474.088 102.597,469.755 108.5,467.5C 119.402,459.103 129.569,449.77 139,439.5C 139.791,438.255 140.291,436.922 140.5,435.5C 143.186,431.492 146.353,427.825 150,424.5C 150.78,422.613 150.613,420.946 149.5,419.5C 148.686,417.727 147.352,417.227 145.5,418C 133.339,433.66 119.672,447.827 104.5,460.5C 92.5176,471.304 79.5176,480.804 65.5,489C 57.5899,493.23 49.2565,495.064 40.5,494.5C 38.4042,492.567 36.9042,490.233 36,487.5C 35.501,483.179 35.3343,478.846 35.5,474.5C 38.7198,465.002 42.5531,455.669 47,446.5C 70.06,406.265 98.2267,369.932 131.5,337.5C 133.238,335.881 133.738,333.881 133,331.5C 130.963,329.294 128.797,327.294 126.5,325.5C 117.612,312.722 110.612,299.055 105.5,284.5C 104.949,281.193 104.616,277.86 104.5,274.5C 102.919,255.686 103.252,237.019 105.5,218.5C 106.216,212.354 107.55,206.354 109.5,200.5C 114.93,188.314 121.43,176.648 129,165.5C 135.356,156.645 142.856,148.978 151.5,142.5C 154.355,140.003 157.688,138.336 161.5,137.5C 162.521,133.977 164.855,132.144 168.5,132C 172.806,129.039 176.806,125.873 180.5,122.5C 181.93,121.463 183.597,120.796 185.5,120.5C 194.636,117.062 203.97,114.562 213.5,113C 227.5,112.667 241.5,112.333 255.5,112C 256.252,111.329 256.586,110.496 256.5,109.5C 256.326,107.139 255.993,104.806 255.5,102.5C 259.167,99.5 262.5,96.1667 265.5,92.5C 266.609,92.4431 267.609,92.1098 268.5,91.5 Z"/></g>
<g><path style="opacity:1" fill="#5f605c" d="M 200.5,88.5 C 201.376,88.3691 202.043,88.7025 202.5,89.5C 200.036,93.7262 196.703,97.0595 192.5,99.5C 192.182,96.5185 193.182,94.1852 195.5,92.5C 197.478,92.2623 199.145,90.9289 200.5,88.5 Z"/></g>
<g><path style="opacity:1" fill="#02441e" d="M 265.5,92.5 C 262.5,96.1667 259.167,99.5 255.5,102.5C 257.833,98.1667 261.167,94.8333 265.5,92.5 Z"/></g>
<g><path style="opacity:1" fill="#0a3b1c" d="M 268.5,91.5 C 269.209,90.596 270.209,90.2627 271.5,90.5C 270.506,96.6257 269.173,102.626 267.5,108.5C 270.385,107.618 273.052,106.284 275.5,104.5C 274.375,106.129 273.041,107.629 271.5,109C 266.333,110.5 264.5,108.667 266,103.5C 267.889,100.49 269.389,97.3238 270.5,94C 270.316,92.6244 269.649,91.7911 268.5,91.5 Z"/></g>
<g><path style="opacity:1" fill="#118f48" d="M 246.5,110.5 C 235.815,110.39 225.148,110.723 214.5,111.5C 220.595,109.986 226.928,109.32 233.5,109.5C 238.013,109.501 242.347,109.834 246.5,110.5 Z"/></g>
<g><path style="opacity:1" fill="#17cd66" d="M 256.5,109.5 C 256.586,110.496 256.252,111.329 255.5,112C 241.5,112.333 227.5,112.667 213.5,113C 203.97,114.562 194.636,117.062 185.5,120.5C 194.527,115.715 204.194,112.715 214.5,111.5C 225.148,110.723 235.815,110.39 246.5,110.5C 249.939,110.747 253.272,110.414 256.5,109.5 Z"/></g>
<g><path style="opacity:1" fill="#41413f" d="M 95.5,77.5 C 91.0493,80.1106 86.7159,82.9439 82.5,86C 71.6697,96.2098 62.6697,107.71 55.5,120.5C 54.6576,118.235 54.9909,115.902 56.5,113.5C 56.1543,112.304 55.6543,112.304 55,113.5C 54.5357,112.906 54.369,112.239 54.5,111.5C 54.8333,111.5 55.1667,111.5 55.5,111.5C 62.807,101.36 71.307,92.3601 81,84.5C 80.9405,81.1573 82.4405,79.1573 85.5,78.5C 84.1498,79.6499 84.3164,80.3166 86,80.5C 89.524,77.9797 93.3573,76.4797 97.5,76C 96.5842,76.2784 95.9175,76.7784 95.5,77.5 Z"/></g>
<g><path style="opacity:1" fill="#525250" d="M 16.5,114.5 C 17.2961,124.479 17.6295,134.479 17.5,144.5C 15.9328,143.319 15.0995,141.653 15,139.5C 14.8333,136.167 14.6667,132.833 14.5,129.5C 14.3343,124.245 15.001,119.245 16.5,114.5 Z"/></g>
<g><path style="opacity:1" fill="#80817e" d="M 492.5,116.5 C 490.161,119.915 487.827,123.248 485.5,126.5C 484.957,126.44 484.624,126.107 484.5,125.5C 486.499,123.507 487.999,121.173 489,118.5C 489.816,117.177 490.983,116.511 492.5,116.5 Z"/></g>
<g><path style="opacity:1" fill="#2d2d2d" d="M 498.5,110.5 C 496.194,112.139 494.194,114.139 492.5,116.5C 490.983,116.511 489.816,117.177 489,118.5C 487.999,121.173 486.499,123.507 484.5,125.5C 484.624,126.107 484.957,126.44 485.5,126.5C 481.96,131.388 477.96,136.055 473.5,140.5C 466.807,146.861 460.14,153.194 453.5,159.5C 449.466,163.536 445.132,167.202 440.5,170.5C 442.294,168.203 444.294,166.037 446.5,164C 445.829,163.014 445.829,161.847 446.5,160.5C 448.477,158.186 450.477,155.853 452.5,153.5C 451.998,152.479 451.332,152.312 450.5,153C 449.333,154.833 447.833,156.333 446,157.5C 446.466,154.9 447.966,152.734 450.5,151C 451.449,150.383 452.282,150.549 453,151.5C 453.317,149.699 453.984,149.366 455,150.5C 466.926,137.069 479.092,123.735 491.5,110.5C 494.035,111.503 496.202,110.837 498,108.5C 498.464,109.094 498.631,109.761 498.5,110.5 Z"/></g>
<g><path style="opacity:1" fill="#083819" d="M 319.5,132.5 C 315.846,131.672 312.513,130.172 309.5,128C 305.249,126.805 300.915,126.305 296.5,126.5C 297.694,125.223 299.36,124.556 301.5,124.5C 308.185,125.908 314.185,128.575 319.5,132.5 Z"/></g>
<g><path style="opacity:1" fill="#1bcb67" d="M 180.5,122.5 C 176.806,125.873 172.806,129.039 168.5,132C 164.855,132.144 162.521,133.977 161.5,137.5C 157.688,138.336 154.355,140.003 151.5,142.5C 159.94,134.109 169.607,127.442 180.5,122.5 Z"/></g>
<g><path style="opacity:1" fill="#fefefe" d="M 340.5,164.5 C 345.563,164.408 349.897,166.074 353.5,169.5C 360.12,180.185 364.286,191.852 366,204.5C 364.211,229.154 367.211,253.154 375,276.5C 381.152,305.49 372.319,328.49 348.5,345.5C 377.166,392.835 393.166,444.168 396.5,499.5C 314.5,499.5 232.5,499.5 150.5,499.5C 150.95,486.916 152.95,474.582 156.5,462.5C 156.5,461.5 156.5,460.5 156.5,459.5C 159.943,450.761 162.943,441.761 165.5,432.5C 169.405,422.684 173.905,413.017 179,403.5C 186.75,391.932 194.25,380.266 201.5,368.5C 209.182,357.764 211.182,346.097 207.5,333.5C 205.748,324.987 202.581,316.987 198,309.5C 191.205,300.024 185.205,290.024 180,279.5C 176.423,271.525 174.256,263.192 173.5,254.5C 173.067,241.323 173.734,228.323 175.5,215.5C 177.515,204.444 181.848,194.444 188.5,185.5C 194.048,177.453 201.048,170.953 209.5,166C 232.166,152.039 254.832,152.039 277.5,166C 286.098,175.611 296.098,183.278 307.5,189C 312.618,189.888 317.618,189.555 322.5,188C 323.667,186.833 324.833,185.667 326,184.5C 328.668,176.126 333.501,169.46 340.5,164.5 Z"/></g>
<g><path style="opacity:1" fill="#b1b1ae" d="M 473.5,140.5 C 474.525,140.897 474.692,141.563 474,142.5C 467.338,148.162 461.005,154.162 455,160.5C 454.617,159.944 454.117,159.611 453.5,159.5C 460.14,153.194 466.807,146.861 473.5,140.5 Z"/></g>
<g><path style="opacity:1" fill="#36cf76" d="M 347.5,159.5 C 350.502,162.161 352.502,165.495 353.5,169.5C 349.897,166.074 345.563,164.408 340.5,164.5C 342.607,163.532 344.941,163.198 347.5,163.5C 347.5,162.167 347.5,160.833 347.5,159.5 Z"/></g>
<g><path style="opacity:1" fill="#8b8b89" d="M 446.5,160.5 C 445.829,161.847 445.829,163.014 446.5,164C 444.294,166.037 442.294,168.203 440.5,170.5C 439.691,169.531 438.691,168.698 437.5,168C 438.843,165.768 440.51,163.934 442.5,162.5C 443.287,160.896 444.62,160.229 446.5,160.5 Z"/></g>
<g><path style="opacity:1" fill="#2f2f2d" d="M 400.5,149.5 C 401.961,151.484 402.627,153.484 402.5,155.5C 404.5,156.167 406.5,156.833 408.5,157.5C 408.431,159.278 408.097,161.111 407.5,163C 410.127,165.118 413.127,166.452 416.5,167C 417.833,168 417.833,169 416.5,170C 417.373,171.045 418.373,171.878 419.5,172.5C 417.307,173.797 414.973,173.797 412.5,172.5C 413.639,170.604 412.973,169.604 410.5,169.5C 409.566,168.432 409.232,167.099 409.5,165.5C 405.808,164.971 405.142,163.471 407.5,161C 405.046,157.629 401.88,156.462 398,157.5C 398.128,155.555 397.962,153.722 397.5,152C 398.373,150.955 399.373,150.122 400.5,149.5 Z"/></g>
<g><path style="opacity:1" fill="#4e4f4c" d="M 442.5,162.5 C 440.51,163.934 438.843,165.768 437.5,168C 438.691,168.698 439.691,169.531 440.5,170.5C 439.375,172.129 438.041,173.629 436.5,175C 432.333,177.833 428.167,180.667 424,183.5C 423.692,182.692 423.192,182.025 422.5,181.5C 420.76,183.211 418.76,184.044 416.5,184C 419.782,182.154 419.615,179.987 416,177.5C 414.663,178.765 413.163,179.265 411.5,179C 413.001,177.748 414.668,176.748 416.5,176C 414.715,174.837 412.715,174.17 410.5,174C 410.966,172.701 410.966,171.201 410.5,169.5C 412.973,169.604 413.639,170.604 412.5,172.5C 414.973,173.797 417.307,173.797 419.5,172.5C 421.144,171.634 422.811,171.134 424.5,171C 422.759,172.62 420.925,174.12 419,175.5C 418.48,177.289 418.813,178.956 420,180.5C 425.359,175.804 430.692,171.138 436,166.5C 437.289,162.543 439.789,160.043 443.5,159C 441.689,160.041 441.355,161.207 442.5,162.5 Z"/></g>
<g><path style="opacity:1" fill="#878784" d="M 85.5,174.5 C 83.4006,175.612 81.0673,176.279 78.5,176.5C 80.4385,174.837 82.7718,174.171 85.5,174.5 Z"/></g>
<g><path style="opacity:1" fill="#ababa9" d="M 109.5,177.5 C 111.461,175.037 113.628,172.703 116,170.5C 115.673,174.459 113.506,176.793 109.5,177.5 Z"/></g>
<g><path style="opacity:1" fill="#545452" d="M 52.5,177.5 C 58.5,177.5 64.5,177.5 70.5,177.5C 65.0997,178.187 59.5997,178.854 54,179.5C 53.2828,178.956 52.7828,178.289 52.5,177.5 Z"/></g>
<g><path style="opacity:1" fill="#90908c" d="M 109.5,177.5 C 108.473,179.194 107.139,180.527 105.5,181.5C 102.063,184.552 98.0627,186.552 93.5,187.5C 97.4762,184.531 101.476,181.531 105.5,178.5C 105.435,178.938 105.601,179.272 106,179.5C 106.816,178.177 107.983,177.511 109.5,177.5 Z"/></g>
<g><path style="opacity:1" fill="#252525" d="M 44.5,195.5 C 43.9032,196.139 43.0698,196.472 42,196.5C 39.5,196 37,195.5 34.5,195C 29.2939,191.609 24.6272,187.775 20.5,183.5C 20.9528,182.542 21.6195,181.708 22.5,181C 21.4829,179.951 21.3162,178.784 22,177.5C 26.5948,182.259 31.4281,186.925 36.5,191.5C 39.2198,192.86 41.8864,194.193 44.5,195.5 Z"/></g>
<g><path style="opacity:1" fill="#3d3e3b" d="M 53.5,196.5 C 52.1932,195.847 50.8599,195.18 49.5,194.5C 48.8333,195.5 48.1667,196.5 47.5,197.5C 46.4822,196.807 45.4822,196.141 44.5,195.5C 39.5284,190.699 34.3618,186.032 29,181.5C 27.3983,179.631 26.3983,177.631 26,175.5C 31.6142,181.567 37.7808,187.067 44.5,192C 47.219,193.545 49.719,193.712 52,192.5C 53.1882,193.563 53.6882,194.897 53.5,196.5 Z"/></g>
<g><path style="opacity:1" fill="#030303" d="M 410.5,198.5 C 418.512,199.681 426.512,199.681 434.5,198.5C 437.426,199.461 440.426,200.127 443.5,200.5C 445.448,201.131 447.281,202.131 449,203.5C 449.278,202.584 449.778,201.918 450.5,201.5C 464.764,206.229 476.598,214.563 486,226.5C 491.475,235.441 494.641,245.107 495.5,255.5C 494.778,255.918 494.278,256.584 494,257.5C 493.667,256.167 493.333,254.833 493,253.5C 492.692,261.192 492.192,268.858 491.5,276.5C 488.309,285.88 484.309,294.88 479.5,303.5C 479.34,305.199 479.506,306.866 480,308.5C 482.636,313.606 485.136,318.772 487.5,324C 487.265,324.873 486.931,325.707 486.5,326.5C 491.113,333.392 494.947,340.725 498,348.5C 498.043,359.342 498.21,370.175 498.5,381C 498.612,385.822 497.945,390.488 496.5,395C 497.554,396.388 497.72,397.888 497,399.5C 496.167,397.833 495.333,396.167 494.5,394.5C 495.609,392.786 494.942,392.119 492.5,392.5C 492.728,390.645 492.061,389.812 490.5,390C 489.626,395.152 486.626,398.652 481.5,400.5C 479.729,399.965 479.396,399.131 480.5,398C 479.552,397.517 478.552,397.351 477.5,397.5C 477.5,395.5 477.5,393.5 477.5,391.5C 477.5,390.5 477.5,389.5 477.5,388.5C 475.408,388.439 473.908,387.439 473,385.5C 472.338,383.187 471.838,380.854 471.5,378.5C 471.57,374.575 470.903,370.909 469.5,367.5C 469.608,365.486 468.942,363.82 467.5,362.5C 465.714,353.641 463.214,344.975 460,336.5C 459.583,335.244 458.75,334.577 457.5,334.5C 458.303,333.577 458.47,332.577 458,331.5C 456.758,333.541 454.925,334.707 452.5,335C 451.748,335.671 451.414,336.504 451.5,337.5C 446.888,340.305 442.888,343.805 439.5,348C 437.359,348.573 435.359,349.406 433.5,350.5C 428.639,350.951 423.973,351.951 419.5,353.5C 416.5,353.5 413.5,353.5 410.5,353.5C 395.546,353.196 384.546,346.53 377.5,333.5C 377.679,331.046 377.013,328.879 375.5,327C 381.471,316.328 384.471,304.828 384.5,292.5C 383.499,285.163 382.499,277.829 381.5,270.5C 382.5,269.833 383.5,269.167 384.5,268.5C 387.732,268.228 389.732,266.562 390.5,263.5C 409.146,258.827 427.146,260.827 444.5,269.5C 450.306,272.236 455.973,275.236 461.5,278.5C 461.917,275.921 461.25,273.754 459.5,272C 460.631,269.478 461.297,266.811 461.5,264C 460.634,261.102 460.634,258.102 461.5,255C 460.522,251.183 459.355,247.35 458,243.5C 455.355,243.158 452.855,241.825 450.5,239.5C 448.697,237.795 448.031,235.962 448.5,234C 445.367,233.04 442.2,232.207 439,231.5C 437.715,231.95 436.548,232.617 435.5,233.5C 435.277,232.033 434.944,230.533 434.5,229C 428.911,226.973 423.578,225.14 418.5,223.5C 416.627,223.482 416.294,223.982 417.5,225C 417,225.5 416.5,226 416,226.5C 415.51,225.207 415.343,223.873 415.5,222.5C 413.139,222.326 410.806,221.993 408.5,221.5C 408.5,220.5 408.5,219.5 408.5,218.5C 403.349,219.23 398.183,219.896 393,220.5C 389.859,220.462 387.192,219.462 385,217.5C 381.587,219.203 378.254,220.203 375,220.5C 374.245,216.745 374.411,213.078 375.5,209.5C 375.833,208.833 376.167,208.167 376.5,207.5C 387.188,202.048 398.521,199.048 410.5,198.5 Z"/></g>
<g><path style="opacity:1" fill="#454543" d="M 410.5,198.5 C 418.5,197.167 426.5,197.167 434.5,198.5C 426.512,199.681 418.512,199.681 410.5,198.5 Z"/></g>
<g><path style="opacity:1" fill="#848482" d="M 443.5,200.5 C 446.059,200.198 448.393,200.532 450.5,201.5C 449.778,201.918 449.278,202.584 449,203.5C 447.281,202.131 445.448,201.131 443.5,200.5 Z"/></g>
<g><path style="opacity:1" fill="#32d878" d="M 188.5,185.5 C 181.848,194.444 177.515,204.444 175.5,215.5C 173.892,219.59 172.725,223.923 172,228.5C 171.481,236.846 171.648,245.179 172.5,253.5C 168.174,230.417 172.174,208.75 184.5,188.5C 185.283,186.712 186.616,185.712 188.5,185.5 Z"/></g>
<g><path style="opacity:1" fill="#f6f7f0" d="M -0.5,208.5 C 1.36448,212.526 4.03115,216.026 7.5,219C 13.8838,224.385 20.5505,229.385 27.5,234C 34.0427,235.681 40.376,237.847 46.5,240.5C 47.5514,243.757 48.2181,247.09 48.5,250.5C 52.3859,271.042 53.2192,291.709 51,312.5C 50.2753,313.059 49.4419,313.392 48.5,313.5C 32.4043,309.057 16.071,307.723 -0.5,309.5C -0.5,275.833 -0.5,242.167 -0.5,208.5 Z"/></g>
<g><path style="opacity:1" fill="#073b1b" d="M 109.5,200.5 C 107.55,206.354 106.216,212.354 105.5,218.5C 104.167,223.5 102.833,228.5 101.5,233.5C 102.353,224.382 103.853,215.382 106,206.5C 106.739,204.111 107.905,202.111 109.5,200.5 Z"/></g>
<g><path style="opacity:1" fill="#212220" d="M 349.5,227.5 C 352.505,227.253 355.005,228.253 357,230.5C 364.393,240.347 367.059,251.347 365,263.5C 360.4,268.518 354.9,269.685 348.5,267C 346.683,265.2 345.516,263.034 345,260.5C 344.333,252.5 344.333,244.5 345,236.5C 345.986,233.194 347.486,230.194 349.5,227.5 Z"/></g>
<g><path style="opacity:1" fill="#f1f1f1" d="M 349.5,233.5 C 353.312,234.078 354.979,236.411 354.5,240.5C 354.696,244.268 353.363,247.268 350.5,249.5C 348.076,247.458 347.076,244.791 347.5,241.5C 347.385,238.591 348.051,235.925 349.5,233.5 Z"/></g>
<g><path style="opacity:1" fill="#f2f3ed" d="M 93.5,235.5 C 94.3302,245.325 94.8302,255.325 95,265.5C 98.1735,291.332 108.007,314.166 124.5,334C 122.886,336.127 120.886,337.627 118.5,338.5C 112.222,336.525 106.222,334.192 100.5,331.5C 100.423,330.25 99.756,329.417 98.5,329C 94.8883,327.85 91.2217,327.017 87.5,326.5C 88.2862,317.663 88.2862,308.997 87.5,300.5C 86.5738,293.763 85.4072,287.096 84,280.5C 83.7216,279.584 83.2216,278.918 82.5,278.5C 80.9573,265.738 78.2906,253.238 74.5,241C 80.9936,239.628 87.3269,237.794 93.5,235.5 Z"/></g>
<g><path style="opacity:1" fill="#21c368" d="M 105.5,218.5 C 103.252,237.019 102.919,255.686 104.5,274.5C 102.923,269.766 102.089,264.766 102,259.5C 101.5,250.84 101.334,242.173 101.5,233.5C 102.833,228.5 104.167,223.5 105.5,218.5 Z"/></g>
<g><path style="opacity:1" fill="#4d4d4b" d="M 404.5,235.5 C 404.938,235.435 405.272,235.601 405.5,236C 404.672,236.915 403.672,237.581 402.5,238C 405.211,239.805 407.878,239.805 410.5,238C 409.007,236.844 409.174,236.01 411,235.5C 411.667,236.167 412.333,236.833 413,237.5C 416.056,236.923 419.056,236.257 422,235.5C 422.717,236.044 423.217,236.711 423.5,237.5C 422.791,238.404 421.791,238.737 420.5,238.5C 419.791,237.596 418.791,237.263 417.5,237.5C 417.5,238.5 417.5,239.5 417.5,240.5C 410.241,240.931 403.241,242.431 396.5,245C 398.931,245.252 401.265,244.752 403.5,243.5C 404.795,244.098 406.128,244.598 407.5,245C 401.468,246.54 395.468,248.207 389.5,250C 390.094,250.464 390.761,250.631 391.5,250.5C 391.389,251.117 391.056,251.617 390.5,252C 387.066,252.558 383.733,253.391 380.5,254.5C 379.178,254.33 378.011,254.663 377,255.5C 376.383,254.551 376.549,253.718 377.5,253C 375.218,251.916 374.884,250.416 376.5,248.5C 378.677,248.414 380.677,247.747 382.5,246.5C 382.833,246.833 383.167,247.167 383.5,247.5C 381.263,248.132 379.597,249.465 378.5,251.5C 379.723,252.614 381.056,252.781 382.5,252C 384.67,250.414 387.004,249.08 389.5,248C 388.5,247.167 387.5,246.333 386.5,245.5C 389.564,244.149 392.564,242.649 395.5,241C 393.765,240.349 392.098,240.515 390.5,241.5C 389.304,241.154 389.304,240.654 390.5,240C 395.204,238.376 399.871,236.876 404.5,235.5 Z"/></g>
<g><path style="opacity:1" fill="#0f0f0f" d="M 375.5,209.5 C 374.411,213.078 374.245,216.745 375,220.5C 378.254,220.203 381.587,219.203 385,217.5C 387.192,219.462 389.859,220.462 393,220.5C 398.183,219.896 403.349,219.23 408.5,218.5C 408.5,219.5 408.5,220.5 408.5,221.5C 410.806,221.993 413.139,222.326 415.5,222.5C 415.343,223.873 415.51,225.207 416,226.5C 416.5,226 417,225.5 417.5,225C 416.294,223.982 416.627,223.482 418.5,223.5C 423.578,225.14 428.911,226.973 434.5,229C 434.944,230.533 435.277,232.033 435.5,233.5C 436.548,232.617 437.715,231.95 439,231.5C 442.2,232.207 445.367,233.04 448.5,234C 448.031,235.962 448.697,237.795 450.5,239.5C 452.855,241.825 455.355,243.158 458,243.5C 459.355,247.35 460.522,251.183 461.5,255C 460.634,258.102 460.634,261.102 461.5,264C 461.297,266.811 460.631,269.478 459.5,272C 461.25,273.754 461.917,275.921 461.5,278.5C 455.973,275.236 450.306,272.236 444.5,269.5C 445.376,269.631 446.043,269.298 446.5,268.5C 450.395,262.489 452.062,256.155 451.5,249.5C 452.234,248.292 452.567,246.959 452.5,245.5C 452.5,245.167 452.5,244.833 452.5,244.5C 452.5,243.5 452.5,242.5 452.5,241.5C 448.985,241.121 445.652,240.121 442.5,238.5C 440.936,239.186 439.269,239.019 437.5,238C 438.167,237.667 438.833,237.333 439.5,237C 438.207,236.51 436.873,236.343 435.5,236.5C 434.058,235.18 433.392,233.514 433.5,231.5C 430.843,231.838 428.51,231.171 426.5,229.5C 422.724,229.77 419.39,230.77 416.5,232.5C 414.784,232.629 413.117,232.962 411.5,233.5C 408.848,233.41 406.515,234.076 404.5,235.5C 399.871,236.876 395.204,238.376 390.5,240C 389.304,240.654 389.304,241.154 390.5,241.5C 392.098,240.515 393.765,240.349 395.5,241C 392.564,242.649 389.564,244.149 386.5,245.5C 387.5,246.333 388.5,247.167 389.5,248C 387.004,249.08 384.67,250.414 382.5,252C 381.056,252.781 379.723,252.614 378.5,251.5C 379.597,249.465 381.263,248.132 383.5,247.5C 383.167,247.167 382.833,246.833 382.5,246.5C 380.677,247.747 378.677,248.414 376.5,248.5C 375.213,247.129 374.547,245.295 374.5,243C 374.536,240.906 374.869,238.906 375.5,237C 374.199,232.586 373.532,227.919 373.5,223C 373.507,218.114 374.174,213.614 375.5,209.5 Z"/></g>
<g><path style="opacity:1" fill="#20201e" d="M 420.5,238.5 C 423.451,239.287 427.784,239.954 433.5,240.5C 426.854,240.069 420.187,240.569 413.5,242C 411.754,242.471 410.087,243.138 408.5,244C 413.806,243.335 419.139,242.502 424.5,241.5C 428.429,242.433 432.429,242.766 436.5,242.5C 435.833,243.167 435.167,243.833 434.5,244.5C 419.977,245.205 405.644,247.205 391.5,250.5C 390.761,250.631 390.094,250.464 389.5,250C 395.468,248.207 401.468,246.54 407.5,245C 406.128,244.598 404.795,244.098 403.5,243.5C 401.265,244.752 398.931,245.252 396.5,245C 403.241,242.431 410.241,240.931 417.5,240.5C 417.5,239.5 417.5,238.5 417.5,237.5C 418.791,237.263 419.791,237.596 420.5,238.5 Z"/></g>
<g><path style="opacity:1" fill="#858582" d="M 435.5,236.5 C 436.873,236.343 438.207,236.51 439.5,237C 438.833,237.333 438.167,237.667 437.5,238C 439.269,239.019 440.936,239.186 442.5,238.5C 445.652,240.121 448.985,241.121 452.5,241.5C 452.5,242.5 452.5,243.5 452.5,244.5C 448.607,242.479 444.44,241.146 440,240.5C 438.5,240.667 437,240.833 435.5,241C 439.491,241.409 443.157,242.576 446.5,244.5C 446.44,245.043 446.107,245.376 445.5,245.5C 442.427,244.65 439.427,243.65 436.5,242.5C 432.429,242.766 428.429,242.433 424.5,241.5C 419.139,242.502 413.806,243.335 408.5,244C 410.087,243.138 411.754,242.471 413.5,242C 420.187,240.569 426.854,240.069 433.5,240.5C 427.784,239.954 423.451,239.287 420.5,238.5C 421.791,238.737 422.791,238.404 423.5,237.5C 427.452,236.728 431.452,236.395 435.5,236.5 Z"/></g>
<g><path style="opacity:1" fill="#8d8e8b" d="M 411.5,233.5 C 413.117,232.962 414.784,232.629 416.5,232.5C 419.817,231.779 423.151,231.612 426.5,232C 421.424,233.802 416.424,234.302 411.5,233.5 Z"/></g>
<g><path style="opacity:1" fill="#30302f" d="M 435.5,236.5 C 431.452,236.395 427.452,236.728 423.5,237.5C 423.217,236.711 422.717,236.044 422,235.5C 419.056,236.257 416.056,236.923 413,237.5C 412.333,236.833 411.667,236.167 411,235.5C 409.174,236.01 409.007,236.844 410.5,238C 407.878,239.805 405.211,239.805 402.5,238C 403.672,237.581 404.672,236.915 405.5,236C 405.272,235.601 404.938,235.435 404.5,235.5C 406.515,234.076 408.848,233.41 411.5,233.5C 416.424,234.302 421.424,233.802 426.5,232C 423.151,231.612 419.817,231.779 416.5,232.5C 419.39,230.77 422.724,229.77 426.5,229.5C 428.51,231.171 430.843,231.838 433.5,231.5C 433.392,233.514 434.058,235.18 435.5,236.5 Z"/></g>
<g><path style="opacity:1" fill="#d6fef1" d="M 175.5,215.5 C 173.734,228.323 173.067,241.323 173.5,254.5C 172.833,254.5 172.5,254.167 172.5,253.5C 171.648,245.179 171.481,236.846 172,228.5C 172.725,223.923 173.892,219.59 175.5,215.5 Z"/></g>
<g><path style="opacity:1" fill="#dbdcd7" d="M 452.5,244.5 C 452.5,244.833 452.5,245.167 452.5,245.5C 450.435,245.483 448.435,245.15 446.5,244.5C 443.157,242.576 439.491,241.409 435.5,241C 437,240.833 438.5,240.667 440,240.5C 444.44,241.146 448.607,242.479 452.5,244.5 Z"/></g>
<g><path style="opacity:1" fill="#242423" d="M 253.5,244.5 C 263.632,243.479 271.466,247.145 277,255.5C 279.812,260.231 278.645,262.398 273.5,262C 267.983,251.219 259.983,248.552 249.5,254C 246.777,257.057 244.444,260.39 242.5,264C 238.333,265.167 236.833,263.667 238,259.5C 241.106,252.225 246.272,247.225 253.5,244.5 Z"/></g>
<g><path style="opacity:1" fill="#f2f3ec" d="M 434.5,244.5 C 440.239,245.969 445.906,247.636 451.5,249.5C 452.062,256.155 450.395,262.489 446.5,268.5C 446.043,269.298 445.376,269.631 444.5,269.5C 427.146,260.827 409.146,258.827 390.5,263.5C 388.091,264.701 386.091,266.367 384.5,268.5C 383.5,269.167 382.5,269.833 381.5,270.5C 379.74,266.605 378.406,262.438 377.5,258C 378.544,256.826 379.544,255.659 380.5,254.5C 383.733,253.391 387.066,252.558 390.5,252C 391.056,251.617 391.389,251.117 391.5,250.5C 405.644,247.205 419.977,245.205 434.5,244.5 Z"/></g>
<g><path style="opacity:1" fill="#50504d" d="M 436.5,242.5 C 439.427,243.65 442.427,244.65 445.5,245.5C 446.107,245.376 446.44,245.043 446.5,244.5C 448.435,245.15 450.435,245.483 452.5,245.5C 452.567,246.959 452.234,248.292 451.5,249.5C 445.906,247.636 440.239,245.969 434.5,244.5C 435.167,243.833 435.833,243.167 436.5,242.5 Z"/></g>
<g><path style="opacity:1" fill="#0c2e17" d="M 101.5,233.5 C 101.334,242.173 101.5,250.84 102,259.5C 102.089,264.766 102.923,269.766 104.5,274.5C 104.616,277.86 104.949,281.193 105.5,284.5C 104.149,281.977 102.983,279.311 102,276.5C 99.9353,262.563 99.2687,248.563 100,234.5C 100.383,233.944 100.883,233.611 101.5,233.5 Z"/></g>
<g><path style="opacity:1" fill="#28241f" d="M 317.5,253.5 C 320.607,253.351 323.607,253.851 326.5,255C 332.906,258.445 338.406,262.945 343,268.5C 343.667,271.5 343.667,274.5 343,277.5C 338.25,283.327 334.25,289.66 331,296.5C 324.071,301.942 317.238,301.776 310.5,296C 307,292.5 303.5,289 300,285.5C 295.41,279.137 295.41,272.803 300,266.5C 305.455,261.536 311.289,257.203 317.5,253.5 Z"/></g>
<g><path style="opacity:1" fill="#424240" d="M 495.5,255.5 C 495.664,258.187 495.497,260.854 495,263.5C 494.667,262.833 494.333,262.167 494,261.5C 493.833,262.833 493.667,264.167 493.5,265.5C 494.599,269.448 493.932,273.115 491.5,276.5C 492.192,268.858 492.692,261.192 493,253.5C 493.333,254.833 493.667,256.167 494,257.5C 494.278,256.584 494.778,255.918 495.5,255.5 Z"/></g>
<g><path style="opacity:1" fill="#80807d" d="M 390.5,263.5 C 389.732,266.562 387.732,268.228 384.5,268.5C 386.091,266.367 388.091,264.701 390.5,263.5 Z"/></g>
<g><path style="opacity:1" fill="#e9ae7c" d="M 316.5,259.5 C 325.268,259.802 332.435,263.468 338,270.5C 338.667,272.167 338.667,273.833 338,275.5C 333.377,281.913 328.877,288.413 324.5,295C 321.12,295.938 318.12,295.271 315.5,293C 310.438,288.726 305.938,283.893 302,278.5C 301.294,276.029 301.627,273.695 303,271.5C 307.102,266.896 311.602,262.896 316.5,259.5 Z"/></g>
<g><path style="opacity:1" fill="#271e18" d="M 316.5,268.5 C 321.93,268.161 327.264,268.661 332.5,270C 333.43,271.194 334.097,272.527 334.5,274C 331.773,277.828 329.606,281.995 328,286.5C 324.409,292.016 319.909,292.849 314.5,289C 311.486,285.322 308.486,281.655 305.5,278C 307.534,272.79 311.201,269.623 316.5,268.5 Z"/></g>
<g><path style="opacity:1" fill="#db3e30" d="M 313.5,277.5 C 316.518,277.335 319.518,277.502 322.5,278C 325.244,281.19 324.577,283.69 320.5,285.5C 316.711,284.048 314.378,281.382 313.5,277.5 Z"/></g>
<g><path style="opacity:1" fill="#4a4b48" d="M 82.5,278.5 C 83.2216,278.918 83.7216,279.584 84,280.5C 85.4072,287.096 86.5738,293.763 87.5,300.5C 87.7845,302.415 87.4511,304.081 86.5,305.5C 86.5339,302.801 85.8672,300.301 84.5,298C 85.6537,297.086 85.487,296.253 84,295.5C 83.6884,289.801 83.1884,284.134 82.5,278.5 Z"/></g>
<g><path style="opacity:1" fill="#e4e5e0" d="M 414.5,301.5 C 419.992,300.665 421.326,302.332 418.5,306.5C 416.045,309.077 413.378,311.411 410.5,313.5C 409.205,312.902 407.872,312.402 406.5,312C 405.483,310.951 405.316,309.784 406,308.5C 408.441,305.546 411.275,303.213 414.5,301.5 Z"/></g>
<g><path style="opacity:1" fill="#141414" d="M -0.5,332.5 C -0.5,324.833 -0.5,317.167 -0.5,309.5C 16.071,307.723 32.4043,309.057 48.5,313.5C 49.4419,313.392 50.2753,313.059 51,312.5C 53.2192,291.709 52.3859,271.042 48.5,250.5C 49.787,249.232 50.787,249.565 51.5,251.5C 56.3849,250.047 57.3849,251.381 54.5,255.5C 55.9979,264.472 57.3312,273.472 58.5,282.5C 56.6994,285.216 56.5327,288.216 58,291.5C 58.6667,292.833 59.3333,292.833 60,291.5C 60.4922,290.451 60.3256,289.451 59.5,288.5C 60.8149,286.684 62.3149,285.017 64,283.5C 64.2784,290.588 64.4451,297.588 64.5,304.5C 64.6927,306.688 63.8594,308.355 62,309.5C 61.4978,312.513 60.9978,315.513 60.5,318.5C 58.8762,318.64 57.7096,317.973 57,316.5C 57.2779,312.861 57.2779,309.194 57,305.5C 56.4888,307.878 55.8221,310.212 55,312.5C 54.0855,308.815 53.4189,309.148 53,313.5C 51.6713,314.494 50.338,315.494 49,316.5C 45.411,314.001 41.911,314.001 38.5,316.5C 35.2674,316.279 32.1007,315.946 29,315.5C 23.1375,318.619 16.9709,321.452 10.5,324C 7.50883,327.839 3.84216,330.672 -0.5,332.5 Z"/></g>
<g><path style="opacity:1" fill="#a3a4a0" d="M 87.5,300.5 C 88.2862,308.997 88.2862,317.663 87.5,326.5C 86.8826,326.389 86.3826,326.056 86,325.5C 85.4536,318.816 85.6203,312.149 86.5,305.5C 87.4511,304.081 87.7845,302.415 87.5,300.5 Z"/></g>
<g><path style="opacity:1" fill="#040404" d="M 105.5,181.5 C 107.311,181.572 108.644,182.405 109.5,184C 105.359,191.447 102.192,199.28 100,207.5C 98.1321,217.025 95.9654,226.358 93.5,235.5C 87.3269,237.794 80.9936,239.628 74.5,241C 78.2906,253.238 80.9573,265.738 82.5,278.5C 83.1884,284.134 83.6884,289.801 84,295.5C 85.487,296.253 85.6537,297.086 84.5,298C 85.8672,300.301 86.5339,302.801 86.5,305.5C 85.6203,312.149 85.4536,318.816 86,325.5C 86.3826,326.056 86.8826,326.389 87.5,326.5C 91.6128,328.58 95.9461,330.247 100.5,331.5C 106.222,334.192 112.222,336.525 118.5,338.5C 112.587,345.957 106.42,353.29 100,360.5C 98.4293,362.923 96.2626,364.256 93.5,364.5C 91.4352,364.483 89.4352,364.15 87.5,363.5C 84.4263,361.215 80.9263,359.549 77,358.5C 76.0546,358.905 75.3879,359.572 75,360.5C 74.6667,359.833 74.3333,359.167 74,358.5C 72.3333,361.833 70.6667,365.167 69,368.5C 68.7787,365.057 67.7787,364.724 66,367.5C 66.6672,371.153 65.5006,374.32 62.5,377C 63.756,377.417 64.4226,378.25 64.5,379.5C 64.1667,380.167 63.8333,380.833 63.5,381.5C 59.5644,383.766 56.2311,386.766 53.5,390.5C 47.9259,395.392 41.5925,399.059 34.5,401.5C 28.8375,401.969 23.1709,402.469 17.5,403C 12.4376,405.403 7.1043,406.569 1.5,406.5C 0.833333,406.5 0.166667,406.5 -0.5,406.5C -0.5,381.833 -0.5,357.167 -0.5,332.5C 3.84216,330.672 7.50883,327.839 10.5,324C 16.9709,321.452 23.1375,318.619 29,315.5C 32.1007,315.946 35.2674,316.279 38.5,316.5C 41.911,314.001 45.411,314.001 49,316.5C 50.338,315.494 51.6713,314.494 53,313.5C 53.4189,309.148 54.0855,308.815 55,312.5C 55.8221,310.212 56.4888,307.878 57,305.5C 57.2779,309.194 57.2779,312.861 57,316.5C 57.7096,317.973 58.8762,318.64 60.5,318.5C 60.9978,315.513 61.4978,312.513 62,309.5C 63.8594,308.355 64.6927,306.688 64.5,304.5C 64.4451,297.588 64.2784,290.588 64,283.5C 62.3149,285.017 60.8149,286.684 59.5,288.5C 60.3256,289.451 60.4922,290.451 60,291.5C 59.3333,292.833 58.6667,292.833 58,291.5C 56.5327,288.216 56.6994,285.216 58.5,282.5C 57.3312,273.472 55.9979,264.472 54.5,255.5C 57.3849,251.381 56.3849,250.047 51.5,251.5C 50.787,249.565 49.787,249.232 48.5,250.5C 48.2181,247.09 47.5514,243.757 46.5,240.5C 40.376,237.847 34.0427,235.681 27.5,234C 20.5505,229.385 13.8838,224.385 7.5,219C 4.03115,216.026 1.36448,212.526 -0.5,208.5C -0.5,206.833 -0.5,205.167 -0.5,203.5C 0.911036,201.461 2.91104,200.461 5.5,200.5C 9.35457,193.969 14.3546,188.302 20.5,183.5C 24.6272,187.775 29.2939,191.609 34.5,195C 37,195.5 39.5,196 42,196.5C 43.0698,196.472 43.9032,196.139 44.5,195.5C 45.4822,196.141 46.4822,196.807 47.5,197.5C 48.1667,196.5 48.8333,195.5 49.5,194.5C 50.8599,195.18 52.1932,195.847 53.5,196.5C 67.3435,195.533 80.6769,192.533 93.5,187.5C 98.0627,186.552 102.063,184.552 105.5,181.5 Z"/></g>
<g><path style="opacity:1" fill="#04431c" d="M 126.5,325.5 C 128.797,327.294 130.963,329.294 133,331.5C 133.738,333.881 133.238,335.881 131.5,337.5C 131.662,335.473 131.495,333.473 131,331.5C 128.873,329.886 127.373,327.886 126.5,325.5 Z"/></g>
<g><path style="opacity:1" fill="#a3a49f" d="M 87.5,326.5 C 91.2217,327.017 94.8883,327.85 98.5,329C 99.756,329.417 100.423,330.25 100.5,331.5C 95.9461,330.247 91.6128,328.58 87.5,326.5 Z"/></g>
<g><path style="opacity:1" fill="#f5f6ef" d="M 377.5,333.5 C 384.546,346.53 395.546,353.196 410.5,353.5C 410.577,354.75 411.244,355.583 412.5,356C 415.482,356.498 418.482,356.665 421.5,356.5C 427.193,356.333 431.193,354.333 433.5,350.5C 435.359,349.406 437.359,348.573 439.5,348C 442.888,343.805 446.888,340.305 451.5,337.5C 451.938,337.435 452.272,337.601 452.5,338C 450.993,338.837 450.493,340.004 451,341.5C 453.466,339.242 455.633,336.909 457.5,334.5C 458.75,334.577 459.583,335.244 460,336.5C 463.214,344.975 465.714,353.641 467.5,362.5C 466.624,362.369 465.957,362.702 465.5,363.5C 466.661,365.885 467.661,368.219 468.5,370.5C 469.007,373.431 470.007,376.098 471.5,378.5C 471.838,380.854 472.338,383.187 473,385.5C 473.908,387.439 475.408,388.439 477.5,388.5C 477.5,389.5 477.5,390.5 477.5,391.5C 463.171,399.057 448.171,405.057 432.5,409.5C 430.629,409.141 429.129,408.141 428,406.5C 408.812,382.646 386.979,361.48 362.5,343C 366.702,339.133 370.535,334.967 374,330.5C 375.039,331.71 376.206,332.71 377.5,333.5 Z"/></g>
<g><path style="opacity:1" fill="#848481" d="M 457.5,334.5 C 455.633,336.909 453.466,339.242 451,341.5C 450.493,340.004 450.993,338.837 452.5,338C 452.272,337.601 451.938,337.435 451.5,337.5C 451.414,336.504 451.748,335.671 452.5,335C 454.925,334.707 456.758,333.541 458,331.5C 458.47,332.577 458.303,333.577 457.5,334.5 Z"/></g>
<g><path style="opacity:1" fill="#48db83" d="M 207.5,333.5 C 211.182,346.097 209.182,357.764 201.5,368.5C 202.699,363.585 204.532,358.919 207,354.5C 207.5,347.508 207.666,340.508 207.5,333.5 Z"/></g>
<g><path style="opacity:1" fill="#9e9f9c" d="M 33.5,348.5 C 29.1106,347.642 24.7773,347.309 20.5,347.5C 25.0152,346.188 29.6819,346.188 34.5,347.5C 34.3764,348.107 34.0431,348.44 33.5,348.5 Z"/></g>
<g><path style="opacity:1" fill="#eeefe9" d="M 17.5,347.5 C 18.5,347.5 19.5,347.5 20.5,347.5C 24.7773,347.309 29.1106,347.642 33.5,348.5C 28.2795,355.12 21.6128,359.787 13.5,362.5C 11.7095,361.609 9.87614,360.609 8,359.5C 7.2917,360.381 6.45837,361.047 5.5,361.5C 5.16667,361.5 4.83333,361.5 4.5,361.5C 4.63993,359.876 3.97326,358.71 2.5,358C 7.19242,353.766 12.1924,350.266 17.5,347.5 Z"/></g>
<g><path style="opacity:1" fill="#aeafab" d="M 433.5,350.5 C 431.193,354.333 427.193,356.333 421.5,356.5C 420.048,355.698 418.382,355.198 416.5,355C 417.737,354.768 418.737,354.268 419.5,353.5C 423.973,351.951 428.639,350.951 433.5,350.5 Z"/></g>
<g><path style="opacity:1" fill="#6f6f6c" d="M 17.5,347.5 C 12.1924,350.266 7.19242,353.766 2.5,358C 3.97326,358.71 4.63993,359.876 4.5,361.5C 2.85463,360.521 1.5213,359.188 0.5,357.5C 3.79688,349.697 9.46354,346.364 17.5,347.5 Z"/></g>
<g><path style="opacity:1" fill="#636460" d="M 410.5,353.5 C 413.5,353.5 416.5,353.5 419.5,353.5C 418.737,354.268 417.737,354.768 416.5,355C 418.382,355.198 420.048,355.698 421.5,356.5C 418.482,356.665 415.482,356.498 412.5,356C 411.244,355.583 410.577,354.75 410.5,353.5 Z"/></g>
<g><path style="opacity:1" fill="#0d4b27" d="M 374.5,361.5 C 371.047,359.261 367.714,356.761 364.5,354C 363.563,353.308 362.897,353.475 362.5,354.5C 360.668,353.86 360.335,352.86 361.5,351.5C 362.795,352.098 364.128,352.598 365.5,353C 368.957,355.387 371.957,358.22 374.5,361.5 Z"/></g>
<g><path style="opacity:1" fill="#f5f6ef" d="M 87.5,363.5 C 89.4352,364.15 91.4352,364.483 93.5,364.5C 93.6107,365.117 93.944,365.617 94.5,366C 74.6667,389.17 57.1667,414.004 42,440.5C 40.5913,441.781 39.0913,442.781 37.5,443.5C 23.2635,448.616 10.5969,456.283 -0.5,466.5C -0.5,446.5 -0.5,426.5 -0.5,406.5C 0.166667,406.5 0.833333,406.5 1.5,406.5C 7.36369,407.599 13.3637,407.432 19.5,406C 24.8157,405.13 29.8157,403.63 34.5,401.5C 41.5925,399.059 47.9259,395.392 53.5,390.5C 57.4356,388.234 60.7689,385.234 63.5,381.5C 63.8333,380.833 64.1667,380.167 64.5,379.5C 64.8333,379.5 65.1667,379.5 65.5,379.5C 67.433,377.063 69.5997,374.729 72,372.5C 72.49,371.207 72.6567,369.873 72.5,368.5C 74.4793,365.901 76.4793,363.235 78.5,360.5C 81.4496,361.705 84.4496,362.705 87.5,363.5 Z"/></g>
<g><path style="opacity:1" fill="#05df64" d="M 374.5,361.5 C 375.585,363.587 377.251,364.92 379.5,365.5C 381.9,368.903 384.9,371.57 388.5,373.5C 393.833,379.5 399.5,385.167 405.5,390.5C 420.718,407.89 434.218,426.557 446,446.5C 452.297,456.687 454.964,467.687 454,479.5C 453.623,480.942 452.79,481.942 451.5,482.5C 447.818,482.665 444.152,482.499 440.5,482C 437.753,480.396 434.753,479.562 431.5,479.5C 421.368,474.602 411.701,468.935 402.5,462.5C 401.542,461.038 400.376,459.705 399,458.5C 396.555,444.43 393.055,430.764 388.5,417.5C 385.926,407.034 382.26,397.034 377.5,387.5C 375.344,381.196 372.678,375.196 369.5,369.5C 367.424,364.349 365.09,359.349 362.5,354.5C 362.897,353.475 363.563,353.308 364.5,354C 367.714,356.761 371.047,359.261 374.5,361.5 Z"/></g>
<g><path style="opacity:1" fill="#535351" d="M 13.5,362.5 C 10.6596,363.917 7.99298,363.584 5.5,361.5C 6.45837,361.047 7.2917,360.381 8,359.5C 9.87614,360.609 11.7095,361.609 13.5,362.5 Z"/></g>
<g><path style="opacity:1" fill="#063f1c" d="M 379.5,365.5 C 383.1,367.43 386.1,370.097 388.5,373.5C 384.9,371.57 381.9,368.903 379.5,365.5 Z"/></g>
<g><path style="opacity:1" fill="#9d9d99" d="M 467.5,362.5 C 468.942,363.82 469.608,365.486 469.5,367.5C 469.443,368.609 469.11,369.609 468.5,370.5C 467.661,368.219 466.661,365.885 465.5,363.5C 465.957,362.702 466.624,362.369 467.5,362.5 Z"/></g>
<g><path style="opacity:1" fill="#4b4c49" d="M 469.5,367.5 C 470.903,370.909 471.57,374.575 471.5,378.5C 470.007,376.098 469.007,373.431 468.5,370.5C 469.11,369.609 469.443,368.609 469.5,367.5 Z"/></g>
<g><path style="opacity:1" fill="#2c2c2b" d="M 87.5,363.5 C 84.4496,362.705 81.4496,361.705 78.5,360.5C 76.4793,363.235 74.4793,365.901 72.5,368.5C 70.5919,371.28 68.4252,373.947 66,376.5C 65.5172,377.448 65.3505,378.448 65.5,379.5C 65.1667,379.5 64.8333,379.5 64.5,379.5C 64.4226,378.25 63.756,377.417 62.5,377C 65.5006,374.32 66.6672,371.153 66,367.5C 67.7787,364.724 68.7787,365.057 69,368.5C 70.6667,365.167 72.3333,361.833 74,358.5C 74.3333,359.167 74.6667,359.833 75,360.5C 75.3879,359.572 76.0546,358.905 77,358.5C 80.9263,359.549 84.4263,361.215 87.5,363.5 Z"/></g>
<g><path style="opacity:1" fill="#858582" d="M 72.5,368.5 C 72.6567,369.873 72.49,371.207 72,372.5C 69.5997,374.729 67.433,377.063 65.5,379.5C 65.3505,378.448 65.5172,377.448 66,376.5C 68.4252,373.947 70.5919,371.28 72.5,368.5 Z"/></g>
<g><path style="opacity:1" fill="#053718" d="M 388.5,373.5 C 395.167,378.167 400.833,383.833 405.5,390.5C 399.5,385.167 393.833,379.5 388.5,373.5 Z"/></g>
<g><path style="opacity:1" fill="#0c371a" d="M 369.5,369.5 C 372.678,375.196 375.344,381.196 377.5,387.5C 372.741,382.517 370.074,376.517 369.5,369.5 Z"/></g>
<g><path style="opacity:1" fill="#9a9a97" d="M 63.5,381.5 C 60.7689,385.234 57.4356,388.234 53.5,390.5C 56.2311,386.766 59.5644,383.766 63.5,381.5 Z"/></g>
<g><path style="opacity:1" fill="#373736" d="M 34.5,401.5 C 29.8157,403.63 24.8157,405.13 19.5,406C 13.3637,407.432 7.36369,407.599 1.5,406.5C 7.1043,406.569 12.4376,405.403 17.5,403C 23.1709,402.469 28.8375,401.969 34.5,401.5 Z"/></g>
<g><path style="opacity:1" fill="#09421f" d="M 377.5,387.5 C 382.26,397.034 385.926,407.034 388.5,417.5C 385.263,409.361 381.763,401.361 378,393.5C 377.505,391.527 377.338,389.527 377.5,387.5 Z"/></g>
<g><path style="opacity:1" fill="#61625f" d="M 498.5,428.5 C 493.729,432.219 488.396,434.885 482.5,436.5C 485.032,433.131 488.199,430.464 492,428.5C 492.333,428.833 492.667,429.167 493,429.5C 493.759,427.365 495.259,426.032 497.5,425.5C 498.386,426.325 498.719,427.325 498.5,428.5 Z"/></g>
<g><path style="opacity:1" fill="#f5f6ef" d="M 498.5,428.5 C 498.833,452.176 498.5,475.843 497.5,499.5C 489.903,495.19 481.903,491.857 473.5,489.5C 468.724,488.081 463.724,487.081 458.5,486.5C 460.94,482.679 462.274,478.513 462.5,474C 461.742,465.374 459.409,457.208 455.5,449.5C 456.602,448.824 457.602,448.158 458.5,447.5C 463.053,445.728 467.719,444.228 472.5,443C 475.761,440.548 479.094,438.381 482.5,436.5C 488.396,434.885 493.729,432.219 498.5,428.5 Z"/></g>
<g><path style="opacity:1" fill="#48da87" d="M 165.5,432.5 C 162.943,441.761 159.943,450.761 156.5,459.5C 158.438,450.056 161.438,441.056 165.5,432.5 Z"/></g>
<g><path style="opacity:1" fill="#6b6b6a" d="M 472.5,436.5 C 474.379,436.393 474.712,436.893 473.5,438C 468.392,440.02 463.392,442.187 458.5,444.5C 458.167,444.167 457.833,443.833 457.5,443.5C 462.313,440.572 467.313,438.239 472.5,436.5 Z"/></g>
<g><path style="opacity:1" fill="#1dbd64" d="M 140.5,435.5 C 140.291,436.922 139.791,438.255 139,439.5C 129.569,449.77 119.402,459.103 108.5,467.5C 119.5,457.167 130.167,446.5 140.5,435.5 Z"/></g>
<g><path style="opacity:1" fill="#030303" d="M 37.5,443.5 C 38.4972,443.47 39.1639,443.97 39.5,445C 34.5316,455.073 30.8649,465.573 28.5,476.5C 26.6137,477.361 24.7804,478.361 23,479.5C 23,480.833 23,482.167 23,483.5C 19.6421,484.786 18.1421,486.953 18.5,490C 15.5529,490.112 14.2196,491.612 14.5,494.5C 12.3453,494.372 10.3453,494.872 8.5,496C 6.26661,498.907 3.26661,500.074 -0.5,499.5C -0.5,488.5 -0.5,477.5 -0.5,466.5C 10.5969,456.283 23.2635,448.616 37.5,443.5 Z"/></g>
<g><path style="opacity:1" fill="#073919" d="M 149.5,419.5 C 148.127,419.343 146.793,419.51 145.5,420C 133.905,435.763 120.238,449.263 104.5,460.5C 119.672,447.827 133.339,433.66 145.5,418C 147.352,417.227 148.686,417.727 149.5,419.5 Z"/></g>
<g><path style="opacity:1" fill="#0b341a" d="M 388.5,417.5 C 393.055,430.764 396.555,444.43 399,458.5C 400.376,459.705 401.542,461.038 402.5,462.5C 400.629,462.141 399.129,461.141 398,459.5C 397.83,457.285 397.163,455.285 396,453.5C 393.274,441.581 390.774,429.581 388.5,417.5 Z"/></g>
<g><path style="opacity:1" fill="#49da87" d="M 156.5,462.5 C 152.95,474.582 150.95,486.916 150.5,499.5C 150.167,499.5 149.833,499.5 149.5,499.5C 149.544,488.318 151.044,477.318 154,466.5C 154.2,464.68 155.034,463.347 156.5,462.5 Z"/></g>
<g><path style="opacity:1" fill="#eeefe9" d="M 409.5,492.5 C 407.738,492.357 406.071,492.691 404.5,493.5C 403.808,492.975 403.308,492.308 403,491.5C 402.256,484.497 401.922,477.497 402,470.5C 409.973,476.461 418.473,481.628 427.5,486C 421.128,487.433 415.128,489.599 409.5,492.5 Z"/></g>
<g><path style="opacity:1" fill="#09381b" d="M 35.5,474.5 C 35.3343,478.846 35.501,483.179 36,487.5C 36.9042,490.233 38.4042,492.567 40.5,494.5C 37.9308,493.604 35.9308,491.938 34.5,489.5C 33.3391,485.205 33.1725,480.871 34,476.5C 34.2784,475.584 34.7784,474.918 35.5,474.5 Z"/></g>
<g><path style="opacity:1" fill="#1fba62" d="M 431.5,479.5 C 434.753,479.562 437.753,480.396 440.5,482C 444.152,482.499 447.818,482.665 451.5,482.5C 451.389,483.117 451.056,483.617 450.5,484C 443.594,484.637 437.261,483.137 431.5,479.5 Z"/></g>
<g><path style="opacity:1" fill="#f0f1ea" d="M 91.5,499.5 C 81.1667,499.5 70.8333,499.5 60.5,499.5C 71.651,494.337 82.151,488.004 92,480.5C 91.6825,486.788 91.5158,493.121 91.5,499.5 Z"/></g>
<g><path style="opacity:1" fill="#043e1d" d="M 100.5,480.5 C 98.8986,486.711 98.2319,493.044 98.5,499.5C 98.1667,499.5 97.8333,499.5 97.5,499.5C 97.3342,494.821 97.5008,490.155 98,485.5C 98.3736,483.509 99.207,481.842 100.5,480.5 Z"/></g>
<g><path style="opacity:1" fill="#f0f1ec" d="M 34.5,499.5 C 33.1667,499.5 31.8333,499.5 30.5,499.5C 31.8333,496.833 33.1667,496.833 34.5,499.5 Z"/></g>
</svg>
